<ttFont>
<head>
    <!-- Most of this table will be recalculated by the compiler -->
    <tableVersion value="1.0"/>
    <fontRevision value="1.0"/>
    <checkSumAdjustment value="0x3f85234f"/>
    <magicNumber value="0x5f0f3cf5"/>
    <flags value="00000000 00000011"/>
    <unitsPerEm value="2048"/>
    <created value="Tue May 30 14:48:53 2017"/>
    <modified value="Wed May 31 02:54:10 2017"/>
    <xMin value="-557"/>
    <yMin value="-548"/>
    <xMax value="2697"/>
    <yMax value="2150"/>
<macStyle value="00000000 00000010"/>
    <lowestRecPPEM value="3"/>
    <fontDirectionHint value="2"/>
    <indexToLocFormat value="0"/>
    <glyphDataFormat value="0"/>
  </head>
          <CharString index="0">
            -15 rmoveto
            146 85 74 74 37 hvcurveto
            18 hlineto
            -25 -133 rlineto
            355 hlineto
            114 648 rlineto
            5 28 3 30 16 vvcurveto
            249 -186 120 -269 -327 -143 -178 -167 -19 vhcurveto
            356 hlineto
            49 10 41 31 59 hhcurveto
            63 46 -36 -55 -8 -2 -10 -1 -6 hvcurveto
            -13 -78 rlineto
            -226 hlineto
            -245 -196 -102 -234 -2 hvcurveto
            66 callsubr
            vvcurveto
            -196 138 -111 178 vhcurveto
            63 356 rmoveto
            61 49 41 81 vhcurveto
            127 hlineto
            -18 -104 rlineto
            -59 -12 -58 -39 -60 hhcurveto
            -60 -49 39 61 hvcurveto
            return
          </CharString>
          <CharString index="1">
            rmoveto
            304 192 167 202 21 hvcurveto
            -353 hlineto
            -68 -14 -56 -30 -72 hhcurveto
            -100 -49 57 79 17 3 35 5 23 hvcurveto
            650 hlineto
            21 89 3 55 19 vvcurveto
            309 3 -216 163 -264 hhcurveto
            -260 -234 -143 -324 -56 hvcurveto
            -11 -69 rlineto
            -8 -45 -6 -45 -44 vvcurveto
            -308 220 -139 277 vhcurveto
            192 676 rmoveto
            -278 hlineto
            7 29 rlineto
            91 23 47 53 82 hhcurveto
            87 39 -60 -75 -3 hvcurveto
            -11 -1 -13 -3 -14 vhcurveto
            return
          </CharString>
          <CharString index="2">
            138 530 779 -107 callgsubr
            return
          </CharString>
          <CharString index="3">
            162 668 -8 callgsubr
            -396 hlineto
            -145 -828 rlineto
            -5 -33 -3 -36 -32 vvcurveto
            -312 270 -143 296 321 239 155 275 47 vhcurveto
            166 954 rlineto
            -395 hlineto
            -152 -852 rlineto
            -144 -25 -74 -57 -99 hhcurveto
            -121 -72 68 108 21 3 25 3 22 hvcurveto
            return
          </CharString>
          <CharString index="4">
            hmoveto
            399 hlineto
            114 274 rlineto
            376 hlineto
            18 -274 rlineto
            427 hlineto
            -182 -13 callsubr
            -497 hlineto
            194 -333 rmoveto
            26 -478 rlineto
            -246 hlineto
            199 478 rlineto
            return
          </CharString>
          <CharString index="5">
            312 rmoveto
            -562 hlineto
            41 232 rlineto
            527 hlineto
            48 277 rlineto
            -526 hlineto
            42 231 rlineto
            560 hlineto
            55 312 rlineto
            -956 -94 callsubr
            956 hlineto
            return
          </CharString>
          <CharString index="6">
            rmoveto
            96 56 56 -61 callgsubr
            -58 -56 -86 -86 58 -56 94 hvcurveto
            449 hmoveto
            96 56 56 86 86 -57 29 callgsubr
          </CharString>
          <CharString index="7">
            rmoveto
            -201 -171 -136 -311 -66 hvcurveto
            -9 -48 rlineto
            -12 -55 -1 -66 -26 vvcurveto
            -261 131 -151 214 142 102 65 81 39 vhcurveto
            18 hlineto
            -22 -139 rlineto
            -107 -19 -44 -59 -113 hhcurveto
            -75 -61 28 50 -17 hvcurveto
            -3 7 -2 7 -1 7 rrcurveto
            -350 hlineto
            -1 -3 -2 -11 -18 vvcurveto
            -172 148 -160 348 305 214 120 241 43 vhcurveto
            191 1102 rlineto
            -382 hlineto
            -35 -197 rlineto
            -15 hlineto
            120 -28 -102 92 -163 hhcurveto
            257 -446 rmoveto
            -17 -2 -46 -5 -28 vhcurveto
            -10 -58 rlineto
            -140 -23 -65 -67 -86 hhcurveto
            -96 -36 82 82 25 4 36 4 18 hvcurveto
            10 57 rlineto
            133 22 64 75 90 hhcurveto
            83 46 -67 -85 hvcurveto
            return
          </CharString>
          <CharString index="8">
            rmoveto
            -401 hlineto
            -267 -775 rlineto
            -16 hlineto
            -45 775 64 callgsubr
            149 -1053 -26 -60 rlineto
            -36 -15 -39 -29 -96 hhcurveto
            -37 -32 4 7 -32 hvcurveto
            -50 -269 rlineto
            -8 46 66 -8 81 hhcurveto
            292 147 99 247 135 hvcurveto
            5 11 14 22 9 20 rrcurveto
            return
          </CharString>
          <CharString index="9">
            -68 1061 -102 callsubr
            return
          </CharString>
          <CharString index="10">
            rmoveto
            -226 -157 -174 -299 -55 hvcurveto
            -13 -68 rlineto
            -9 -48 -5 -59 -52 vvcurveto
            -250 129 -145 210 143 112 71 108 42 vhcurveto
            18 hlineto
            -30 -169 51 callsubr
            252 1437 122 callgsubr
            -102 -574 rlineto
            -15 hlineto
            128 -19 -117 94 -158 hhcurveto
            261 -447 -54 callsubr
            -135 -24 55 callsubr
            -80 -50 62 101 24 3 34 3 18 hvcurveto
            12 65 rlineto
            130 22 62 76 91 hhcurveto
            75 54 -58 -95 hvcurveto
            return
          </CharString>
          <CharString index="11">
            128 140 835 rmoveto
            -26 -149 rlineto
            -9 -47 -7 -63 -48 vvcurveto
            -373 255 -178 334 366 202 200 286 51 vhcurveto
            48 277 rlineto
            -564 hlineto
            -43 -244 rlineto
            203 hlineto
            -12 -55 rlineto
            -77 -16 -81 -75 -134 hhcurveto
            -126 -85 98 147 32 4 40 7 40 hvcurveto
            24 133 rlineto
            194 34 91 103 132 hhcurveto
            144 46 -102 -54 1 hvcurveto
            -11 0 -12 -1 -6 vhcurveto
            379 hlineto
            2 8 1 29 7 vvcurveto
            208 -159 245 -416 -382 -206 -229 -324 -57 vhcurveto
            return
          </CharString>
          <CharString index="12">
            rmoveto
            134 112 114 173 12 hvcurveto
            -182 hlineto
            -55 -5 -24 -30 -39 -76 -34 122 -138 hhcurveto
            -154 -88 -134 -152 -10 hvcurveto
            182 hlineto
            53 5 28 32 37 69 37 -123 134 hhcurveto
            return
          </CharString>
          <CharString index="13">
            hlineto
            -240 -1364 rlineto
            return
          </CharString>
          <CharString index="14">
            599 -15 rmoveto
            315 193 189 249 53 hvcurveto
            14 69 rlineto
            9 45 0 45 41 vvcurveto
            78 -15 68 -25 57 vhcurveto
            1 9 127 37 56 74 29 160 rlinecurve
            37 216 rlineto
            -287 hlineto
            -28 -158 rlineto
            -64 -11 -30 -28 -69 -66 -133 24 -113 hhcurveto
            -312 -200 -189 -250 -48 hvcurveto
            -13 -70 rlineto
            -9 -43 -2 -47 -42 vvcurveto
            -315 237 -155 290 vhcurveto
            -112 618 rmoveto
            115 16 51 95 105 hhcurveto
            91 65 callgsubr
            -98 rlineto
            -113 -17 -51 -97 -102 hhcurveto
            -94 -41 78 86 27 5 31 3 25 hvcurveto
            return
          </CharString>
          <CharString index="15">
            240 1364 -91 callsubr
            return
          </CharString>
          <CharString index="16">
            rlineto
            -89 callgsubr
            return
          </CharString>
          <CharString index="17">
            122 callsubr
            88 87 116 hhcurveto
            111 70 -83 -106 1 hvcurveto
            1 -18 -2 -30 -4 -23 rrcurveto
            372 hlineto
            13 37 3 56 27 vvcurveto
            232 -196 229 -368 -370 -213 -224 -341 -57 vhcurveto
            -27 -161 rlineto
            -9 -55 0 -49 -7 vvcurveto
            -370 208 -203 363 372 196 215 265 26 vhcurveto
            1 3 23 1 vvcurveto
            126 callsubr
            -18 -70 -70 -111 hhcurveto
            -137 -63 104 130 30 3 46 7 40 hvcurveto
            return
          </CharString>
          <CharString index="18">
            rmoveto
            135 85 109 137 1 hvcurveto
            -172 hlineto
            -49 -1 -18 -46 -42 -66 -29 109 -147 hhcurveto
            -146 -67 -124 -112 -1 hvcurveto
            172 hlineto
            46 4 22 31 41 73 20 -101 136 hhcurveto
            return
          </CharString>
          <CharString index="19">
            728 1265 -23 rmoveto
            355 222 202 341 64 hvcurveto
            34 187 rlineto
            9 52 1 52 45 vvcurveto
            331 -234 200 -335 -321 -221 -170 -299 -81 vhcurveto
            -6 -20 -6 -32 -4 -22 rrcurveto
            -137 hlineto
            90 520 rlineto
            31 callgsubr
            94 528 rlineto
            150 hlineto
            0 0 -1 0 vhcurveto
            -7 0 -8 -7 vvcurveto
            -329 234 -199 332 vhcurveto
            -135 802 122 callsubr
            87 87 109 hhcurveto
            128 63 -101 -132 -28 -3 -44 -7 -42 hvcurveto
            -23 -132 rlineto
            -208 -38 -85 -90 -111 hhcurveto
            -129 -62 82 callsubr
            return
          </CharString>
          <CharString index="20">
            rmoveto
            233 155 164 302 52 hvcurveto
            12 69 rlineto
            9 52 5 59 51 vvcurveto
            246 -129 152 -206 -144 -109 -84 -134 -50 vhcurveto
            -20 hlineto
            39 208 rlineto
            -388 hlineto
            -251 -1432 60 callgsubr
            99 549 rlineto
            14 hlineto
            -124 25 109 -78 161 hhcurveto
            -260 456 rmoveto
            18 3 31 4 23 vhcurveto
            11 102 callgsubr
            76 91 hhcurveto
            78 51 -59 -92 -28 -3 -44 101 callsubr
            -132 -24 -60 -74 -90 hhcurveto
            -77 -55 61 104 hvcurveto
            return
          </CharString>
          <CharString index="21">
            rmoveto
            -274 186 -164 300 255 227 119 276 32 vhcurveto
            -353 hlineto
            -62 -13 -43 -36 -78 hhcurveto
            -105 -34 67 93 19 0 33 6 35 hvcurveto
            18 98 rlineto
            122 22 64 60 80 hhcurveto
            84 41 -69 -64 -3 0 -8 -2 -7 hvcurveto
            355 hlineto
            3 13 2 13 24 vvcurveto
            269 -234 125 -246 -249 -230 -129 -316 -58 vhcurveto
            -18 -98 rlineto
            -8 -44 -4 -52 -40 vvcurveto
            return
          </CharString>
          <CharString index="22">
            -107 534 -23 rmoveto
            249 234 128 317 54 hvcurveto
            17 100 rlineto
            8 45 4 51 40 vvcurveto
            274 -186 164 -300 -255 -227 -119 -276 -31 vhcurveto
            352 hlineto
            62 14 42 36 81 hhcurveto
            93 44 -56 -83 -8 0 -6 -1 -7 hvcurveto
            -260 hlineto
            -35 -203 rlineto
            268 hlineto
            -9 -4 -14 -2 -8 vhcurveto
            -86 -22 -63 -49 -71 hhcurveto
            -87 -38 56 56 hvcurveto
            2 0 4 2 vvcurveto
            -357 hlineto
            -7 0 -9 -10 vvcurveto
            -264 234 -123 245 vhcurveto
            return
          </CharString>
          <CharString index="23">
            397 683 -20 rmoveto
            321 239 155 275 48 hvcurveto
            119 688 rlineto
            72 hlineto
            177 128 135 164 29 hvcurveto
            36 212 rlineto
            -286 hlineto
            -27 -153 rlineto
            -64 -12 -28 -28 -63 hhcurveto
            -375 hlineto
            -152 -852 rlineto
            -144 -25 -74 -57 -99 hhcurveto
            -121 -72 68 108 21 3 25 4 22 hvcurveto
            141 809 rlineto
            -396 hlineto
            -144 -828 rlineto
            -6 -33 -3 -36 -32 vvcurveto
            -312 270 -143 296 vhcurveto
            return
          </CharString>
          <CharString index="24">
            168 710 157 rmoveto
            20 hlineto
            -28 -157 rlineto
            369 hlineto
            142 809 rlineto
            26 hlineto
            178 120 90 200 35 hvcurveto
            39 223 rlineto
            -287 hlineto
            -28 -155 rlineto
            -64 -11 -10 -28 -63 hhcurveto
            -335 hlineto
            -105 -598 rlineto
            -141 -25 -54 -61 -91 hhcurveto
            -55 -62 37 92 28 2 36 5 30 hvcurveto
            101 577 122 callgsubr
            -104 -590 rlineto
            -10 -55 -8 -56 -74 vvcurveto
            -210 139 -105 182 164 95 88 84 44 vhcurveto
            return
          </CharString>
          <CharString index="25">
            rmoveto
            619 924 rlineto
            -417 hlineto
            -328 -548 rlineto
            -15 hlineto
            -127 548 rlineto
            -424 hlineto
            296 -936 -76 -428 59 callsubr
            return
          </CharString>
          <CharString index="26">
            rmoveto
            -49 -38 35 47 48 39 35 48 47 39 -34 -49 -48 -38 -34 -48 hvcurveto
            -6 -156 rmoveto
            133 116 98 141 130 -99 107 -139 -133 -116 -98 -141 -130 98 -107 140 hvcurveto
            endchar
          </CharString>
          <CharString index="27">
            rmoveto
            -5 -26 -2 -29 -22 vvcurveto
            -167 125 -74 236 90 53 8 8 26 vhcurveto
            47 262 rlineto
            -3 -13 -31 -4 -30 hhcurveto
            -76 -32 25 71 5 1 10 3 18 hvcurveto
            178 1043 119 callgsubr
            endchar
          </CharString>
          <CharString index="28">
            31 -78 callgsubr
            return
          </CharString>
          <CharString index="29">
            hmoveto
            385 hlineto
            104 602 rlineto
            133 23 49 66 87 hhcurveto
            66 41 -55 -75 -26 -4 -48 -3 -18 hvcurveto
            -101 -579 rlineto
            366 hlineto
            105 604 rlineto
            128 23 49 69 76 hhcurveto
            71 43 -53 -77 -26 -4 -48 -3 -18 hvcurveto
            -101 -579 rlineto
            383 133 callsubr
            17 94 8 65 52 vvcurveto
            192 -123 126 -197 -146 -111 -72 -121 -64 vhcurveto
            -15 hlineto
            122 -38 -100 71 -136 hhcurveto
            -138 -110 -71 -120 -54 hvcurveto
            -19 hlineto
            31 176 rlineto
            -370 hlineto
            return
          </CharString>
          <CharString index="30">
            rmoveto
            -88 70 -70 88 87 71 70 88 88 -71 70 -87 23 callsubr
          </CharString>
          <CharString index="31">
            rmoveto
            143 hlineto
            120 47 -62 -68 -86 -72 -55 -98 -102 -72 61 89 6 0 6 1 7 hvcurveto
            -367 hlineto
            -3 -18 -1 -20 -19 vvcurveto
            -314 293 -108 245 309 271 142 296 151 -109 101 -150 27 vhcurveto
            3 16 rlineto
            193 19 113 127 171 vvcurveto
            251 -243 111 -263 -312 -200 -163 -290 -51 vhcurveto
            373 hlineto
            83 19 49 75 109 hhcurveto
            77 67 -42 -72 -81 -63 -58 -115 hvcurveto
            -162 hlineto
            return
          </CharString>
          <CharString index="32">
            rmoveto
            276 hlineto
            124 112 rlineto
            22 hlineto
            95 -112 rlineto
            268 hlineto
            -222 251 92 callgsubr
            return
          </CharString>
          <CharString index="33">
            1075 rmoveto
            -379 hlineto
            -237 -748 rlineto
            -15 hlineto
            -21 748 rlineto
            -360 hlineto
            -269 -748 rlineto
            -15 hlineto
            12 748 rlineto
            -375 hlineto
            91 -1075 110 callgsubr
            262 696 rlineto
            13 hlineto
            33 -696 110 callgsubr
            return
          </CharString>
          <CharString index="34">
            67 379 rlineto
            210 115 callgsubr
            188 238 49 hvcurveto
            9 41 4 43 43 vvcurveto
            272 -173 161 -291 vhcurveto
            -552 hlineto
            -240 -1365 rlineto
            692 1083 rmoveto
            76 94 -41 -128 -22 -4 -25 -6 -20 hvcurveto
            -94 -25 -76 -67 -111 hhcurveto
            -123 hlineto
            70 397 rlineto
            return
          </CharString>
          <CharString index="35">
            rmoveto
            261 hlineto
            150 170 rlineto
            21 hlineto
            76 -170 rlineto
            270 hlineto
            -185 329 89 callgsubr
            return
          </CharString>
          <CharString index="36">
            rmoveto
            -88 70 -70 88 88 70 70 88 88 -70 70 -88 23 callsubr
          </CharString>
          <CharString index="37">
            2 callgsubr
            129 23 59 73 92 hhcurveto
            78 42 -50 -80 -29 -4 -42 -23 callgsubr
            90 8 67 -41 callsubr
            92 519 64 callgsubr
            return
          </CharString>
          <CharString index="38" raw="1">
            a3f7bc75 15f7c6f7 18f737f7 a7f7351f
            f8c3fa48 05fc2d06 fbcafce5 057906fb
            23f8e505 fc4406f7 e6fe9499 bd053f43
            5973474a 6397891b 57fbc205 8cbd75ef
            1b0b   
          </CharString>
          <CharString index="39">
            hmoveto
            139 799 rlineto
            18 hlineto
            129 -600 rlineto
            211 hlineto
            354 600 rlineto
            18 hlineto
            -142 -799 rlineto
            349 37 callgsubr
            -444 hlineto
            -398 -678 rlineto
            -13 hlineto
            -155 678 rlineto
            -421 -94 callsubr
            return
          </CharString>
          <CharString index="40">
            913 hlineto
            51 276 rlineto
            -422 hlineto
            3 16 514 554 39 229 rlineto
            -896 hlineto
            -51 -275 rlineto
            436 hlineto
            -3 -16 -549 -587 rlineto
            return
          </CharString>
          <CharString index="41">
            107 758 731 rmoveto
            -77 -93 36 109 22 4 25 5 20 hvcurveto
            78 21 80 54 108 hhcurveto
            136 hlineto
            -62 -344 rlineto
            -163 -283 rmoveto
            104 hlineto
            -78 -448 65 callsubr
            -606 hlineto
            -334 -181 -172 -204 -49 hvcurveto
            -10 -38 -5 -41 -38 vvcurveto
            -150 68 -115 116 -65 vhcurveto
            -390 -541 rlineto
            424 hlineto
            return
          </CharString>
          <CharString index="42">
            1364 rmoveto
            31 callgsubr
            65 374 145 154 217 -528 rlineto
            432 hlineto
            -329 739 574 625 rlineto
            -471 hlineto
            -479 -546 rlineto
            -16 hlineto
            return
          </CharString>
          <CharString index="43">
            rmoveto
            10 23 26 4 34 hhcurveto
            48 45 -30 -30 -41 -30 -27 -66 -34 hvcurveto
            77 -107 rlineto
            124 46 83 94 105 vvcurveto
            96 -95 72 -125 -61 -37 -6 -9 -26 vhcurveto
            endchar
          </CharString>
          <CharString index="44">
            -478 rmoveto
            81 callsubr
            2 124 callsubr
            -74 55 -87 1 vhcurveto
            33 80 rlineto
            0 1 0 0 vhcurveto
            229 18 194 122 29 252 rrcurveto
            -353 hlineto
            -62 -13 -43 -36 -78 hhcurveto
            -105 -34 67 93 19 0 33 6 35 hvcurveto
            18 98 rlineto
            122 22 64 60 79 hhcurveto
            85 42 -69 -64 -3 0 -9 -2 -6 hvcurveto
            354 hlineto
            3 13 2 13 24 vvcurveto
            269 -234 125 -246 -249 -230 -129 -316 -58 vhcurveto
            -18 -98 rlineto
            -8 -44 -4 -52 -40 vvcurveto
            -230 130 -151 219 -44 vhcurveto
            -48 -157 -12 -71 rlineto
            74 94 callsubr
            -5 -44 28 callsubr
            return
          </CharString>
          <CharString index="45" raw="1">
            15f851f7 dc60ebfc 51fbdc05 f735f765
            15f706a2 b2becd1b b9ac685b 66886e85
            701f69fb 4305fb07 7566594a 1b5c6ab1
            c1a78eac 91ab1ffb b0ca1583 5d897963
            1afb68f7 28fb22f7 71f77ef7 26f719f7
            92b61e9b ec0591a3 8eaab71a f76afb26
            f720fb73 fb7dfb27 fb1afb8f 621e0e
          </CharString>
          <CharString index="46">
            -120 557 -19 -59 callsubr
            return
          </CharString>
          <CharString index="47">
            83 callgsubr
            -153 -875 rlineto
            -87 -16 -36 -77 -102 hhcurveto
            -92 -41 64 78 13 1 15 3 19 hvcurveto
            -374 -2 rlineto
            -5 -18 -5 -34 -43 vvcurveto
            -288 231 -152 279 280 211 154 302 53 vhcurveto
            return
          </CharString>
          <CharString index="48">
            rmoveto
            310 176 147 184 109 -75 85 -125 27 hvcurveto
            2 14 rlineto
            152 6 100 106 141 vvcurveto
            183 -192 115 -263 -291 -199 -143 -242 -43 vhcurveto
            348 hlineto
            71 26 48 45 77 hhcurveto
            64 45 -29 -50 -71 -48 -31 -93 hvcurveto
            -136 hlineto
            -40 -218 rlineto
            159 hlineto
            70 41 -33 -43 -58 -50 -41 -76 -83 -68 45 74 -9 hvcurveto
            -342 hlineto
            -8 1 -6 -8 vvcurveto
            -246 19 203 -125 292 hhcurveto
            return
          </CharString>
          <CharString index="49" raw="1">
            520a0e   
          </CharString>
          <CharString index="50" raw="1">
            15c78c05 c3ac6f59 626d6e60 616ca8b4
            1f958b9b 8a1afbce 0688708b 86811afb
            4bf729fb 07f781f7 7ff73df7 07f7358d
            1e8cf64e cefb059e 8d9718f7 1297dbdf
            f70a1af7 25fb21ec fb69fb6e fb2afb01
            fb486b1e f7cb06b3 91a8a4b2 1bafa572
            66636e73 5b1f2a06 0b 
          </CharString>
          <CharString index="51">
            445 -48 callsubr
            return
          </CharString>
          <CharString index="52">
            rmoveto
            -280 -416 rlineto
            -15 hlineto
            -130 416 137 callgsubr
            274 -677 -513 -687 rlineto
            420 hlineto
            293 403 rlineto
            15 hlineto
            156 -403 rlineto
            440 hlineto
            -289 686 530 678 rlineto
            return
          </CharString>
          <CharString index="53">
            rmoveto
            -26 -2 -42 -4 -4 callsubr
            return
          </CharString>
          <CharString index="54">
            60 callgsubr
            72 411 rlineto
            118 hlineto
            0 0 -1 0 vhcurveto
            1 -16 1 -16 3 -16 rrcurveto
            -252 41 214 -125 257 hhcurveto
            -106 618 rmoveto
            115 18 47 95 101 hhcurveto
            87 39 36 callsubr
            -113 -17 -49 -97 -98 hhcurveto
            -90 -38 78 86 26 3 31 4 25 hvcurveto
            return
          </CharString>
          <CharString index="55">
            rmoveto
            2 19 rlineto
            40 3 29 29 38 hhcurveto
            35 24 -27 -38 -44 -30 -38 -77 -52 hvcurveto
            -355 -240 -40 -241 rlineto
            721 hlineto
            46 240 rlineto
            -328 hlineto
            3 14 145 86 rlineto
            150 87 80 106 115 vvcurveto
            164 -137 103 -222 -212 -145 -108 -167 -13 vhcurveto
            -3 -48 rlineto
            endchar
          </CharString>
          <CharString index="56">
            rmoveto
            98 17 24 39 45 hhcurveto
            31 19 -23 -40 -22 -2 -26 -6 -34 hvcurveto
            -24 -144 rlineto
            -100 -17 -24 -37 -43 hhcurveto
            -32 -19 28 44 18 3 24 5 36 hvcurveto
            -324 52 rmoveto
            -8 -49 -2 -17 -38 vvcurveto
            -212 148 -142 221 234 146 133 254 43 vhcurveto
            16 97 rlineto
            6 25 3 32 42 vvcurveto
            214 -146 140 -223 -233 -147 -134 -251 -41 vhcurveto
            endchar
          </CharString>
          <CharString index="57">
            rmoveto
            -164 -1 136 -104 216 hhcurveto
            251 169 153 226 151 -87 90 -146 -86 -81 -30 -48 -44 hvcurveto
            -15 hlineto
            37 132 rlineto
            421 hlineto
            44 241 rlineto
            -661 hlineto
            -128 -516 rlineto
            302 hlineto
            16 19 29 10 22 hhcurveto
            42 29 -33 -49 -1 hvcurveto
            -59 -2 -43 -46 -52 hhcurveto
            -46 -33 34 44 hvcurveto
            6 0 3 3 vvcurveto
            -282 hlineto
            -6 -12 -3 -23 -25 vvcurveto
            endchar
          </CharString>
          <CharString index="58">
            rmoveto
            3 17 4 30 18 vvcurveto
            174 -147 94 -157 -208 -154 -112 -221 -36 vhcurveto
            200 hlineto
            96 21 72 50 75 hhcurveto
            102 28 -71 -74 hvcurveto
            -1 vlineto
            return
          </CharString>
          <CharString index="59">
            hmoveto
            -92 callsubr
            return
          </CharString>
          <CharString index="60">
            rmoveto
            -210 159 -141 237 231 165 144 202 165 -101 115 -146 -41 -27 -7 -17 -28 vhcurveto
            -18 hlineto
            9 16 19 26 19 20 37 42 110 98 134 111 rrcurveto
            -423 hlineto
            -68 -58 -41 -41 -37 -41 rrcurveto
            -129 -150 -61 -136 -138 vvcurveto
            397 91 rmoveto
            55 43 -43 -55 -55 -43 -43 -55 -55 -43 43 55 55 43 43 55 hvcurveto
            endchar
          </CharString>
          <CharString index="61">
            -26 callsubr
            86 -392 rmoveto
            61 callgsubr
            -86 58 -56 93 hvcurveto
            449 hmoveto
            88 callsubr
            -58 29 callgsubr
          </CharString>
          <CharString index="62">
            123 668 -23 rmoveto
            369 214 222 343 57 hvcurveto
            28 161 rlineto
            8 55 1 50 6 vvcurveto
            374 -212 199 -359 -379 -191 -220 -260 -25 vhcurveto
            0 -2 -24 -1 vvcurveto
            365 hlineto
            103 18 68 72 114 hhcurveto
            134 66 -101 -132 -13 -1 -18 -1 -16 hvcurveto
            -1 -13 rlineto
            -793 hlineto
            -6 -20 -5 -21 -4 -24 rrcurveto
            -13 -62 -10 -72 -64 vvcurveto
            -287 189 -237 371 vhcurveto
            1 321 rmoveto
            -122 -65 85 95 4 hvcurveto
            1 1 19 1 vvcurveto
            0 406 vlineto
            -4 -16 rlineto
            -113 -26 -78 -72 -116 hhcurveto
            return
          </CharString>
          <CharString index="63">
            rmoveto
            -672 hlineto
            -29 -162 rlineto
            672 hlineto
            endchar
          </CharString>
          <CharString index="64" raw="1">
            155506fb 8ef8af05 fc3206f7 ddfd248f
            bffcd6fd 8c05f857 06f82df8 b605c206
            2afcb605 f80d06ec f8b605c2 06f776fc
            b605f83a 06fbbbf9 578558f8 cef95805
            fc4906fc 44fcaf05 5506eaf8 af05fc0d
            060b   
          </CharString>
          <CharString index="65">
            20 callgsubr
            -396 hlineto
            -94 -533 rlineto
            -24 -39 -75 -26 -87 hhcurveto
            -146 -56 68 149 27 hvcurveto
            65 366 rlineto
            -395 hlineto
            -64 -359 rlineto
            -353 -63 165 -190 316 hhcurveto
            103 116 30 30 61 hvcurveto
            17 hlineto
            -92 -522 rlineto
            return
          </CharString>
          <CharString index="66">
            53 vvcurveto
            190 -126 129 -199 -133 -106 -62 -110 -56 vhcurveto
            -19 hlineto
            return
          </CharString>
          <CharString index="67">
            401 hlineto
            -220 534 428 541 rlineto
            -419 hlineto
            -206 -337 rlineto
            -13 hlineto
            -86 337 rlineto
            -420 hlineto
            222 -541 -392 -534 rlineto
            400 hlineto
            202 326 rlineto
            13 hlineto
            return
          </CharString>
          <CharString index="68">
            368 hlineto
            75 425 rlineto
            43 hlineto
            181 -425 rlineto
            402 hlineto
            -271 546 437 529 134 callsubr
            -287 -399 rlineto
            -40 hlineto
            70 399 rlineto
            -368 hlineto
            -70 -399 rlineto
            -40 hlineto
            -145 399 rlineto
            -387 hlineto
            213 -476 -453 -599 rlineto
            411 hlineto
            314 425 rlineto
            43 hlineto
            return
          </CharString>
          <CharString index="69">
            647 1096 rmoveto
            -334 -181 -169 -202 -21 hvcurveto
            353 hlineto
            67 16 53 31 74 hhcurveto
            99 48 -57 -79 -17 -2 -36 -5 -23 hvcurveto
            -650 hlineto
            -12 -50 -12 -65 -63 vvcurveto
            -293 -4 217 -163 263 hhcurveto
            261 234 142 326 56 hvcurveto
            11 68 rlineto
            8 45 5 45 51 vvcurveto
            300 -218 142 -259 vhcurveto
            -211 -679 rmoveto
            278 hlineto
            -6 -28 rlineto
            -92 -19 -52 -52 -83 hhcurveto
            -87 -38 60 74 3 hvcurveto
            11 1 14 3 13 vhcurveto
            return
          </CharString>
          <CharString index="70">
            1053 rmoveto
            42 hlineto
            -91 -507 -247 -1 rlineto
            151 -545 rmoveto
            944 121 callsubr
            -566 hlineto
            42 238 rlineto
            529 hlineto
            50 278 rlineto
            -530 hlineto
            42 238 rlineto
            566 hlineto
            54 305 rlineto
            -1269 hlineto
            -825 -1365 rlineto
            442 hlineto
            150 252 rlineto
            361 hlineto
            return
          </CharString>
          <CharString index="71">
            rmoveto
            249 hlineto
            119 97 rlineto
            4 hlineto
            78 -97 rlineto
            247 hlineto
            -191 191 rlineto
            -235 hlineto
            237 35 rmoveto
            110 78 86 123 1 hvcurveto
            -147 hlineto
            -53 -1 -13 -19 -40 -54 -39 83 -113 hhcurveto
            -106 -66 -92 -102 -1 hvcurveto
            147 hlineto
            22 9 34 40 vhcurveto
            46 35 -82 114 hhcurveto
            endchar
          </CharString>
          <CharString index="72">
            -578 rlineto
            384 133 callsubr
            return
          </CharString>
          <CharString index="73">
            rmoveto
            -177 319 rlineto
            -303 hlineto
            229 -319 rlineto
            701 hmoveto
            -177 319 rlineto
            -303 hlineto
            229 -319 rlineto
            return
          </CharString>
          <CharString index="74">
            -72 55 -59 78 return
          </CharString>
          <CharString index="75">
            hmoveto
            382 hlineto
            192 1075 rlineto
            -383 hlineto
            return
          </CharString>
          <CharString index="76">
            rmoveto
            139 85 109 137 1 hvcurveto
            -172 hlineto
            -49 -1 -18 -46 -42 -66 -28 109 -146 hhcurveto
            -153 -62 -124 -112 -1 hvcurveto
            172 hlineto
            46 4 22 31 41 73 16 126 callgsubr
          </CharString>
          <CharString index="77">
            rmoveto
            113 callsubr
            -14 -26 -3 0 -5 -1 -3 hvcurveto
            -38 -5 -44 -5 -49 hhcurveto
            -30 -57 5 9 -26 hvcurveto
            -26 -145 71 callsubr
            22 hvcurveto
            2 14 1 13 11 vvcurveto
            89 -57 56 -88 vhcurveto
            20 100 rlineto
            -200 hlineto
            endchar
          </CharString>
          <CharString index="78" raw="1">
            158c8da2 8c8c1efc 02062479 4844fb06
            1bfb1a48 eff71996 8c9a8c95 1f8c928b
            938c9308 f9ad0696 af96b492 b80893b8
            90bbbb1a f7b4fb56 f780fc07 fc05fb69
            fb72fbeb 511e70fb 35058254 8b59851a
            fc0af768 fb5bf7fb f80ef753 f770f798
            a41efc7e f8f515e4 c95f4aa2 1f927390
            73897008 8a8a7d89 1afc2a06 8f9a05f7
            06a8d6d3 f7071bfc c9fc6715 baf79f05
            fb1e0643 70bac694 1f95c9b1 c18b1afb
            b3068b5e 4f7afb00 1efb516c f70afb18
            f7911b0e   
          </CharString>
          <CharString index="79">
            137 107 658 rmoveto
            -8 -49 -1 -56 -48 vvcurveto
            -103 24 -90 42 -76 vhcurveto
            -149 -148 129 -125 138 138 rlineto
            -80 100 135 -44 157 hhcurveto
            361 225 202 341 65 hvcurveto
            34 187 rlineto
            10 52 0 52 45 vvcurveto
            101 -22 88 -42 75 vhcurveto
            144 143 -136 118 -123 -124 rlineto
            84 -100 -139 46 -161 hhcurveto
            -353 -235 -198 -345 -61 hvcurveto
            823 -104 rmoveto
            -2 -10 -62 -1 -4 vhcurveto
            -13 -76 rlineto
            -208 -37 -90 -90 -117 hhcurveto
            -67 -51 25 41 -33 hvcurveto
            423 417 rlineto
            -3 -4 -34 -4 vvcurveto
            -33 258 rmoveto
            -433 -427 rlineto
            -1 3 0 4 3 vvcurveto
            1 23 3 22 5 23 23 130 rcurveline
            208 38 91 88 114 hhcurveto
            73 52 -29 -48 34 hvcurveto
            return
          </CharString>
          <CharString index="80">
            hlineto
            -189 -1075 rlineto
            return
          </CharString>
          <CharString index="81">
            rmoveto
            32 170 rlineto
            -671 hlineto
            -32 -170 rlineto
            return
          </CharString>
          <CharString index="82">
            138 1102 -173 rmoveto
            -5 -16 -37 -3 -22 hhcurveto
            -69 -45 28 66 11 hvcurveto
            12 83 93 58 67 58 127 110 72 136 30 162 35 187 rcurveline
            8 46 1 56 25 vvcurveto
            366 -238 187 -342 -351 -235 -198 -345 -62 vhcurveto
            -33 -186 rlineto
            -9 -49 -1 -61 -26 vvcurveto
            -403 330 -128 216 63 48 12 8 15 vhcurveto
            -3 -21 -59 -41 -41 -52 -10 -71 rlinecurve
            -17 -113 69 -103 182 -3 78 -2 72 18 27 6 rrcurveto
            -538 1150 rmoveto
            208 37 89 88 120 hhcurveto
            130 67 -101 -132 -31 -3 -48 -6 -35 hvcurveto
            -24 -132 rlineto
            -208 -37 -88 -90 -122 hhcurveto
            -130 -67 101 133 36 4 45 6 36 hvcurveto
            return
          </CharString>
          <CharString index="83">
            rmoveto
            -670 hlineto
            -30 -162 rlineto
            671 hlineto
            -149 -320 rmoveto
            78 55 59 72 72 -55 59 -78 -78 -55 -59 -72 -33 callsubr
            hvcurveto
            -409 hmoveto
            77 55 59 72 72 -55 59 -77 -78 -55 -59 -72 -33 callsubr
            hvcurveto
            endchar
          </CharString>
          <CharString index="84">
            rmoveto
            250 hlineto
            245 96 callgsubr
          </CharString>
          <CharString index="85">
            48 262 rlineto
            -3 -16 -31 -4 -33 hhcurveto
            -81 -41 25 71 5 1 10 3 18 hvcurveto
            67 return
          </CharString>
          <CharString index="86">
            350 1078 -15 rmoveto
            255 133 161 326 59 hvcurveto
            8 43 7 60 70 vvcurveto
            164 -40 158 -56 108 vhcurveto
            -348 hlineto
            60 -166 19 -130 -116 vvcurveto
            -53 -3 -55 -9 -62 vhcurveto
            -155 -22 -36 -63 -66 hhcurveto
            -52 -27 30 60 15 1 14 3 17 hvcurveto
            62 363 rlineto
            -337 hlineto
            -62 -365 rlineto
            -100 -17 -34 -34 -48 hhcurveto
            -57 -31 25 84 16 2 26 5 38 hvcurveto
            31 217 103 217 146 177 rrcurveto
            -399 hlineto
            -110 -126 -84 -180 -35 -201 rrcurveto
            -15 -82 -4 -53 -49 vvcurveto
            -245 121 -154 236 160 89 70 163 78 vhcurveto
            15 hlineto
            -151 15 111 -82 173 hhcurveto
            return
          </CharString>
          <CharString index="87">
            -32 callsubr
            21 291 -16 callgsubr
            return
          </CharString>
          <CharString index="88">
            rmoveto
            47 26 -42 -71 -97 -39 -66 -58 -45 -26 43 73 91 41 69 54 hvcurveto
            -347 -178 rmoveto
            -193 130 -136 184 215 144 165 244 123 callgsubr
            -165 -244 vhcurveto
            -520 889 rmoveto
            47 26 -42 -71 -97 -39 -66 -58 -45 -26 42 74 90 41 70 54 hvcurveto
            -347 -178 rmoveto
            -193 130 -136 184 215 144 164 245 123 callgsubr
            -166 -243 vhcurveto
            99 -999 rmoveto
            13 callgsubr
            endchar
          </CharString>
          <CharString index="89">
            -83 566 -21 -106 callsubr
            -448 586 -64 callgsubr
            return
          </CharString>
          <CharString index="90" raw="1">
            f95805fc 5206fc3e fcaf0558 06ebf8af
            05fc1fa8 0af81f06 ecf8b605 bd060b
          </CharString>
          <CharString index="91">
            -27 callsubr
            384 hlineto
            141 800 rlineto
            return
          </CharString>
          <CharString index="92">
            105 1276 457 rmoveto
            1 4 23 1 1 vhcurveto
            -367 hlineto
            -103 -18 -67 -71 -122 hhcurveto
            -121 -73 85 123 1 hvcurveto
            9 1 11 9 0 0 0 1 vvcurveto
            380 hlineto
            48 278 rlineto
            -388 hlineto
            2 10 3 19 3 9 rrcurveto
            129 31 80 75 113 hhcurveto
            112 68 -79 -100 2 hvcurveto
            1 -4 0 -6 -4 vvcurveto
            379 hlineto
            2 20 1 20 14 vvcurveto
            229 -194 231 -370 -368 -214 -222 -343 -58 vhcurveto
            -21 -127 rlineto
            -11 -68 -4 -50 -31 vvcurveto
            -370 212 -199 359 368 175 197 283 50 vhcurveto
            return
          </CharString>
          <CharString index="93">
            -188 124 -134 169 92 84 41 44 34 vhcurveto
            39 hlineto
            -136 -37 -122 -86 -156 hhcurveto
            -21 -32 1 3 -17 hvcurveto
            -27 -131 rlineto
            -5 20 49 -3 38 hhcurveto
            295 203 212 297 270 -167 166 -215 -196 -157 -139 -212 hvcurveto
            return
          </CharString>
          <CharString index="94">
            -41 callgsubr
            rlineto
            return
          </CharString>
          <CharString index="95">
            -24 487 603 -106 callgsubr
            244 584 -64 callgsubr
            return
          </CharString>
          <CharString index="96">
            158 893 rlineto
            -324 hlineto
            -225 -126 -48 -266 210 124 rlineto
            14 hlineto
            -110 -625 rlineto
            return
          </CharString>
          <CharString index="97">
            rmoveto
            156 174 61 109 46 190 46 236 -24 221 -86 134 rrcurveto
            -307 hlineto
            74 -214 14 -173 -41 -202 -47 -184 -101 -199 -93 -92 rrcurveto
            endchar
          </CharString>
          <CharString index="98">
            686 rmoveto
            3 19 rlineto
            170 12 134 139 164 vvcurveto
            213 -226 155 -311 -304 -208 -141 -206 -128 74 -97 143 -59 vhcurveto
            -4 -19 rlineto
            -225 -24 -142 -139 -193 vvcurveto
            -239 245 -167 347 336 233 161 231 159 -101 120 -164 39 vhcurveto
            -319 -456 rmoveto
            -107 -77 71 99 105 86 84 108 105 80 -75 -99 -104 -85 -81 -110 hvcurveto
            90 596 rmoveto
            -84 -65 65 83 90 72 72 92 85 63 -63 -84 -90 -73 -73 -90 hvcurveto
            endchar
          </CharString>
          <CharString index="99" raw="1">
            610a0e   
          </CharString>
          <CharString index="100">
            rmoveto
            59 280 rlineto
            -233 hlineto
            50 242 rlineto
            -292 hlineto
            -50 -242 rlineto
            -235 hlineto
            -59 -280 rlineto
            234 hlineto
            -49 -239 rlineto
            292 hlineto
            49 239 rlineto
            endchar
          </CharString>
          <CharString index="101">
            hvcurveto
            -100 -35 callsubr
            return
          </CharString>
          <CharString index="102">
            rmoveto
            -2 -11 -1 -12 -11 vvcurveto
            -136 114 -103 162 197 136 103 170 45 vhcurveto
            -184 hlineto
            -64 -24 -64 -42 -71 hhcurveto
            -75 -46 37 69 -4 hvcurveto
            0 vlineto
            return
          </CharString>
          <CharString index="103">
            -18 vhcurveto
            -11 -63 rlineto
            return
          </CharString>
          <CharString index="104">
            1388 rmoveto
            -341 -217 -233 -277 -239 164 -156 220 151 108 76 76 46 hvcurveto
            12 hlineto
            -183 -14 -89 -180 -153 hhcurveto
            -66 -85 34 78 -1 hvcurveto
            -353 hlineto
            -15 0 -20 1 -14 vhcurveto
            -183 19 174 -175 304 hhcurveto
            257 164 126 180 98 hvcurveto
            92 155 33 191 162 vvcurveto
            362 -179 235 -345 vhcurveto
            -28 -655 rmoveto
            -91 -58 73 90 100 69 99 102 91 62 -78 -91 -96 -71 -97 -104 hvcurveto
            endchar
          </CharString>
          <CharString index="105">
            1065 371 rmoveto
            -353 hlineto
            -62 -14 -42 -36 -81 hhcurveto
            -96 -43 58 87 1 hvcurveto
            5 1 6 1 6 vhcurveto
            259 hlineto
            36 203 rlineto
            -269 hlineto
            1 5 2 9 1 5 rrcurveto
            92 20 63 54 75 hhcurveto
            84 39 -54 -54 2 hvcurveto
            -4 0 -5 -3 vvcurveto
            357 hlineto
            1 6 0 9 10 vvcurveto
            264 -235 124 -244 -250 -234 -128 -317 -54 vhcurveto
            -17 -100 rlineto
            -8 -45 -4 -52 -40 vvcurveto
            -274 187 -163 299 256 227 119 275 32 vhcurveto
            return
          </CharString>
          <CharString index="106">
            rmoveto
            -385 hlineto
            -104 -602 rlineto
            -135 -24 -50 -64 -85 hhcurveto
            -58 -49 46 84 135 callsubr
            126 callsubr
            -604 rlineto
            -137 -24 -54 -60 -70 hhcurveto
            -64 -50 45 85 135 callsubr
            -383 hlineto
            -99 -561 rlineto
            -10 -56 -15 -82 -73 vvcurveto
            -191 122 -127 198 192 86 113 80 43 vhcurveto
            15 hlineto
            -96 30 80 -97 164 hhcurveto
            178 86 107 84 38 hvcurveto
            19 hlineto
            -31 -176 rlineto
            370 hlineto
            endchar
          </CharString>
          <CharString index="107">
            1258 872 rmoveto
            352 -271 167 -297 -3 vhcurveto
            -319 -4 -230 -200 -306 vvcurveto
            -262 169 -158 210 86 57 26 18 19 vhcurveto
            26 hlineto
            -3 -5 -9 -9 -61 -69 -94 -106 -252 -232 -96 -81 rrcurveto
            516 hlineto
            100 97 157 154 95 130 114 148 81 163 2 180 rrcurveto
            -561 -185 rmoveto
            -112 -87 86 113 113 88 88 114 112 85 -85 -114 -112 -86 -89 -114 hvcurveto
            endchar
          </CharString>
          <CharString index="108">
            -35 callsubr
            10 55 return
          </CharString>
          <CharString index="109">
            -68 418 hmoveto
            -31 -165 -13 -71 rlineto
            58 hlineto
            80 22 40 callgsubr
            168 107 62 135 21 46 callgsubr
            20 98 rlineto
            387 hlineto
            55 312 rlineto
            -562 hlineto
            41 232 rlineto
            527 hlineto
            48 277 rlineto
            -526 hlineto
            42 231 rlineto
            560 hlineto
            55 312 rlineto
            -956 -94 callsubr
            return
          </CharString>
          <CharString index="110">
            -106 callsubr
            endchar
          </CharString>
          <CharString index="111">
            486 rmoveto
            -356 281 -154 274 311 255 199 310 247 -162 174 -226 -82 -52 -23 -21 -20 vhcurveto
            -26 hlineto
            7 11 23 30 33 36 100 112 257 236 93 77 rrcurveto
            -513 hlineto
            -109 -96 -113 -122 -45 -49 rrcurveto
            -166 -185 -120 -192 -234 vvcurveto
            561 193 rmoveto
            112 88 -89 -111 -112 -89 -88 -112 -112 -86 88 111 112 88 89 111 hvcurveto
            endchar
          </CharString>
          <CharString index="112">
            422 321 rmoveto
            66 59 43 93 vhcurveto
            119 hlineto
            39 220 rlineto
            -121 hlineto
            -60 -37 32 48 60 51 51 79 103 25 -67 -77 -13 hvcurveto
            345 hlineto
            250 37 -170 148 -314 hhcurveto
            -274 -221 -127 -205 -102 69 -73 108 -16 hvcurveto
            -2 -16 rlineto
            -162 -13 -125 -106 -153 vvcurveto
            -194 178 -112 279 318 191 159 238 42 vhcurveto
            -341 hlineto
            -86 -17 -60 -57 -99 hhcurveto
            -72 -47 33 56 hvcurveto
            return
          </CharString>
          <CharString index="113">
            543 -21 rmoveto
            341 188 131 283 67 hvcurveto
            -364 hlineto
            -97 -29 -59 -42 -107 hhcurveto
            -82 -38 24 52 52 37 28 71 hvcurveto
            136 hlineto
            45 252 rlineto
            -83 hlineto
            -95 -33 19 52 62 44 34 78 88 52 -41 -76 9 hvcurveto
            333 hlineto
            251 -5 -170 133 -323 hhcurveto
            -297 -175 -113 -193 -88 37 -63 80 -45 hvcurveto
            -4 -18 rlineto
            -143 -41 -77 -98 -141 vvcurveto
            -208 166 -109 312 vhcurveto
            return
          </CharString>
          <CharString index="114">
            rmoveto
            -49 -38 36 47 48 39 35 48 47 38 -34 -49 -48 -37 -35 -48 hvcurveto
            -7 -154 rmoveto
            134 132 callgsubr
            -100 106 -139 -133 -115 -97 -141 -130 97 -106 140 hvcurveto
            endchar
          </CharString>
          <CharString index="115">
            -128 488 -15 rmoveto
            307 218 149 225 33 hvcurveto
            -334 hlineto
            -57 -13 -62 -73 -104 hhcurveto
            -69 -36 26 39 hvcurveto
            -1 50 41 26 74 15 rrcurveto
            2 78 18 2 hhcurveto
            2 75 17 1 2 hvcurveto
            234 52 158 114 195 vvcurveto
            188 -1 -139 126 -292 hhcurveto
            -309 -167 -150 -204 -43 hvcurveto
            325 hlineto
            53 10 62 57 85 hhcurveto
            63 31 -26 -41 1 hvcurveto
            -56 return
          </CharString>
          <CharString index="116" raw="1">
            f7731c04 8dfa8e15 b7f78d05 fe9a065f
            fb8d05f9 70fc0a15 f4cc533c 5e7c606d
            6a1f5d6b 5469381b fb1206c7 f7e405fc
            90fd1815 f8f006f7 61f734cd f711ed1f
            d5ddb6f7 06f71b1a f78afb40 f732fbb9
            1efb3406 e0f88205 fc1f060e 
          </CharString>
          <CharString index="117" raw="1">
            e1fad6fa 0a15acf7 5105fe7f 066afb51
            05f956fc 1915d4b4 674f828a 8388831f
            4d7f525e 3c1bfb05 06b3f778 05fc63fc
            8515f8cd 06f7a6f7 45f723f7 5cb21f91
            a68ea7a9 1af766fb 26f714fb a31efb18
            06f70cf9 33f70e1d 0e 
          </CharString>
          <CharString index="118">
            rmoveto
            -2 -8 -1 -11 -9 vvcurveto
            -116 107 -88 153 185 129 87 145 42 vhcurveto
            -174 hlineto
            -54 -22 -60 -35 -68 hhcurveto
            -69 -43 31 58 -4 hvcurveto
            0 vlineto
            248 38 rmoveto
            119 73 92 117 1 hvcurveto
            -148 hlineto
            -42 -1 -15 -39 -36 -57 -23 93 -125 hhcurveto
            -131 -53 -107 -93 -1 hvcurveto
            147 hlineto
            37 3 19 26 35 63 14 -84 116 hhcurveto
            endchar
          </CharString>
          <CharString index="119">
            hlineto
            69 389 rlineto
            -384 -27 callsubr
            384 hlineto
            72 411 rlineto
            return
          </CharString>
          <CharString index="120" raw="1">
            791dfc1f 060b  
          </CharString>
          <CharString index="121">
            132 callsubr
            330 hlineto
            116 callgsubr
            return
          </CharString>
          <CharString index="122">
            rmoveto
            53 252 rlineto
            -766 hlineto
            -54 -252 rlineto
            845 369 rmoveto
            54 252 rlineto
            -767 hlineto
            -53 -252 rlineto
            endchar
          </CharString>
          <CharString index="123">
            -72 -85 -26 -4 -38 -3 -23 hvcurveto
            -14 return
          </CharString>
          <CharString index="124">
            742 275 rmoveto
            -297 hlineto
            4 19 56 71 32 112 40 194 rlinecurve
            27 129 rlineto
            231 hlineto
            -611 -1085 rmoveto
            50 285 rlineto
            610 14 callsubr
            -143 hlineto
            142 800 rlineto
            -939 hlineto
            -78 -392 -46 -230 -40 -129 -76 -49 rlinecurve
            -90 hlineto
            -98 -560 rlineto
            endchar
          </CharString>
          <CharString index="125">
            21 callsubr
            endchar
          </CharString>
          <CharString index="126">
            -80 callgsubr
            555 -683 rmoveto
            203 36 -133 120 -199 hhcurveto
            -219 -160 -119 -204 -30 hvcurveto
            203 hlineto
            87 15 54 54 105 hhcurveto
            97 44 -54 -87 -16 hvcurveto
            endchar
          </CharString>
          <CharString index="127">
            104 -70 -103 callsubr
            -312 463 -46 callgsubr
            return
          </CharString>
          <CharString index="128">
            -365 -102 callgsubr
            return
          </CharString>
          <CharString index="129">
            -281 rlineto
            -6 27 68 -6 41 hhcurveto
            291 return
          </CharString>
          <CharString index="130">
            -88 -70 -70 -88 vhcurveto
            endchar
          </CharString>
          <CharString index="131">
            1171 26 callgsubr
          </CharString>
          <CharString index="132">
            rmoveto
            382 195 211 251 218 -153 129 -306 hvcurveto
            -118 hlineto
            52 294 rlineto
            -382 hlineto
            -108 -612 rlineto
            -337 -59 180 -154 317 hhcurveto
            35 268 rmoveto
            -80 -40 55 96 16 hvcurveto
            22 127 rlineto
            103 hlineto
            92 44 -44 -68 -80 -54 -86 -103 hvcurveto
            endchar
          </CharString>
          <CharString index="133">
            rmoveto
            -286 hlineto
            -126 -95 rlineto
            -3 hlineto
            -86 95 rlineto
            -272 hlineto
            224 -196 rlineto
            241 hlineto
            -330 -300 rmoveto
            77 55 59 72 72 -55 59 -77 -78 -55 -59 -72 -33 callsubr
            hvcurveto
            409 hmoveto
            78 55 59 72 72 -55 59 -78 -78 -55 -59 -72 -33 callsubr
            hvcurveto
            endchar
          </CharString>
          <CharString index="134">
            213 1244 hmoveto
            -42 callsubr
            return
          </CharString>
          <CharString index="135">
            33 callsubr
            61 -10 67 hhcurveto
            return
          </CharString>
          <CharString index="136">
            hlineto
            -5 callgsubr
            return
          </CharString>
          <CharString index="137" raw="1">
            d71df7f1 06f70b0a 0b 
          </CharString>
          <CharString index="138">
            hlineto
            -24 callgsubr
            return
          </CharString>
          <CharString index="139">
            rmoveto
            258 hlineto
            113 136 rlineto
            -288 hlineto
            24 -541 rmoveto
            111 85 76 111 109 -85 75 -111 -112 -84 -75 -109 -111 85 -76 111 hvcurveto
            -65 185 rmoveto
            37 28 26 36 37 28 -26 -37 -36 -28 -26 -37 -36 -28 26 36 vhcurveto
            endchar
          </CharString>
          <CharString index="140">
            -5 -49 hhcurveto
            -30 104 callsubr
            20 return
          </CharString>
          <CharString index="141">
            1906 rmoveto
            274 -352 rlineto
            254 hlineto
            -222 352 rlineto
            -299 -572 40 callsubr
            -57 56 -96 -94 -56 -56 -86 vhcurveto
            endchar
          </CharString>
          <CharString index="142">
            1230 -26 callsubr
            197 314 rmoveto
            96 56 55 -61 callgsubr
            -57 -56 -86 -86 58 -55 93 hvcurveto
            450 hmoveto
            127 callgsubr
            86 -57 56 -95 -95 -15 callgsubr
            -55 95 hvcurveto
            endchar
          </CharString>
          <CharString index="143">
            16 callsubr
            -92 rlineto
            return
          </CharString>
          <CharString index="144">
            rrcurveto
            -353 hlineto
            -68 -14 -56 -30 -72 hhcurveto
            -100 -49 57 79 17 3 35 5 23 hvcurveto
            650 hlineto
            21 89 3 55 19 vvcurveto
            309 3 -216 163 -264 hhcurveto
            -260 -234 -143 -324 -56 hvcurveto
            -11 -69 rlineto
            -8 -45 -6 -45 -44 vvcurveto
            return
          </CharString>
          <CharString index="145">
            1365 rmoveto
            -406 hlineto
            -512 -846 -57 -320 rlineto
            622 hlineto
            -35 -199 rlineto
            357 hlineto
            35 199 rlineto
            165 hlineto
            56 315 rlineto
            -174 hlineto
            52 302 rlineto
            -342 hlineto
            -52 -293 rlineto
            -207 hlineto
            1 2 rlineto
            endchar
          </CharString>
          <CharString index="146">
            rmoveto
            321 hlineto
            49 280 rlineto
            -321 hlineto
            33 188 rlineto
            -351 hlineto
            -33 -188 rlineto
            -313 hlineto
            -50 -280 rlineto
            314 hlineto
            -37 -207 rlineto
            351 hlineto
            261 -355 rmoveto
            46 265 rlineto
            -985 hlineto
            -46 -265 rlineto
            endchar
          </CharString>
          <CharString index="147">
            rmoveto
            -86 58 -56 93 61 callgsubr
            vhcurveto
            450 hmoveto
            58 callgsubr
            88 callsubr
            return
          </CharString>
          <CharString index="148" raw="1">
            15fb7cfb 52f752f7 7cf77cf7 52f752f7
            7cf77cf7 52fb52fb 7cfb7cfb 52fb52fb
            7c1ff794 04e4d6d8 e4e540d8 3231403e
            3132d63e e51f0e  
          </CharString>
          <CharString index="149">
            rmoveto
            49 275 rlineto
            -941 hlineto
            -48 -275 rlineto
            278 113 callgsubr
            141 800 rlineto
            endchar
          </CharString>
          <CharString index="150">
            rmoveto
            254 hlineto
            -218 351 rlineto
            -306 hlineto
            708 -478 rmoveto
            -671 hlineto
            -32 -170 rlineto
            671 hlineto
            endchar
          </CharString>
          <CharString index="151">
            385 31 callsubr
            -1041 -16 callsubr
            273 hlineto
            endchar
          </CharString>
          <CharString index="152">
            -666 208 -365 rmoveto
            281 639 rlineto
            -361 hlineto
            -219 -639 rlineto
            248 1182 87 callgsubr
            130 75 callgsubr
            -78 -132 vhcurveto
            endchar
          </CharString>
          <CharString index="153">
            hlineto
            -29 -162 rlineto
            670 hlineto
            return
          </CharString>
          <CharString index="154">
            rmoveto
            -44 -239 rlineto
            372 hlineto
            -3 -13 -437 -641 rlineto
            355 hlineto
            427 652 43 241 rlineto
            endchar
          </CharString>
          <CharString index="155">
            rmoveto
            -670 46 callsubr
            return
          </CharString>
          <CharString index="156">
            rmoveto
            -199 266 -339 -263 -234 314 -272 -209 235 -315 -343 -265 198 -266 342 265 238 -317 272 209 -238 318 rlineto
            endchar
          </CharString>
          <CharString index="157">
            rmoveto
            56 -120 61 -203 -278 vvcurveto
            -558 -260 -440 -163 -155 vhcurveto
            367 hlineto
            227 198 223 414 545 vvcurveto
            236 -67 245 -72 116 vhcurveto
            endchar
          </CharString>
          <CharString index="158">
            rlineto
            385 hlineto
            return
          </CharString>
          <CharString index="159">
            -4 0 -4 -1 -4 hvcurveto
            return
          </CharString>
          <CharString index="160">
            hvcurveto
            -2 0 -1 return
          </CharString>
          <CharString index="161">
            rmoveto
            943 -302 54 303 -448 111 3 15 487 111 54 308 -1053 -315 rlineto
            849 -856 rmoveto
            49 276 rlineto
            -996 hlineto
            -48 -276 rlineto
            endchar
          </CharString>
          <CharString index="162">
            -61 -73 -90 hhcurveto
            return
          </CharString>
          <CharString index="163">
            rmoveto
            58 325 rlineto
            -376 hlineto
            69 395 rlineto
            -337 hlineto
            -69 -395 rlineto
            -374 hlineto
            -57 -325 rlineto
            374 hlineto
            -68 -387 rlineto
            337 hlineto
            68 387 rlineto
            endchar
          </CharString>
          <CharString index="164">
            rmoveto
            -92 callsubr
            return
          </CharString>
          <CharString index="165" raw="1">
            f81106f8 c1fac705 fc2706fb a4fd7405
            7b0667f9 7405fc25 06f7121c fa6815f8
            1106d7f8 4105fc11 060b 
          </CharString>
          <CharString index="166">
            rlineto
            395 hlineto
            return
          </CharString>
          <CharString index="167">
            -636 35 hmoveto
            10 callgsubr
            -262 -1682 -98 callgsubr
            return
          </CharString>
          <CharString index="168">
            31 callsubr
            -384 hlineto
            return
          </CharString>
          <CharString index="169">
            hmoveto
            -18 callgsubr
            return
          </CharString>
          <CharString index="170">
            168 107 62 135 return
          </CharString>
          <CharString index="171">
            rmoveto
            -67 callsubr
            return
          </CharString>
          <CharString index="172">
            59 callsubr
            -18 callgsubr
            return
          </CharString>
          <CharString index="173">
            -2 0 -1 -2 return
          </CharString>
          <CharString index="174">
            rmoveto
            218 39 -130 133 -213 hhcurveto
            -227 -130 -138 -213 -37 hvcurveto
            203 hlineto
            104 18 57 65 101 hhcurveto
            102 32 -65 -104 -18 hvcurveto
            return
          </CharString>
          <CharString index="175">
            rmoveto
            236 hlineto
            289 351 rlineto
            -282 hlineto
            -402 -306 rmoveto
            88 70 71 87 41 callgsubr
            -71 -70 -88 -87 71 -71 88 hvcurveto
            endchar
          </CharString>
          <CharString index="176">
            290 -8 callgsubr
            return
          </CharString>
          <CharString index="177">
            rmoveto
            62 291 rlineto
            -658 hlineto
            -62 -291 rlineto
            endchar
          </CharString>
          <CharString index="178">
            114 callgsubr
            63 callsubr
            return
          </CharString>
          <CharString index="179">
            rmoveto
            -48 -276 rlineto
            299 hlineto
            -205 -1157 rlineto
            -300 hlineto
            -56 -321 rlineto
            664 hlineto
            311 1754 rlineto
            endchar
          </CharString>
          <CharString index="180">
            -277 1241 -64 callgsubr
            return
          </CharString>
          <CharString index="181">
            -8 callgsubr
            -52 -298 rlineto
            600 hlineto
            -3 -19 -697 -1047 rlineto
            435 hlineto
            686 1067 52 297 rlineto
            endchar
          </CharString>
          <CharString index="182">
            hlineto
            -253 -1437 rlineto
            return
          </CharString>
          <CharString index="183">
            560 rlineto
            -143 112 callgsubr
            -141 -800 rlineto
            -273 112 callgsubr
            return
          </CharString>
          <CharString index="184">
            rmoveto
            -11 callsubr
            endchar
          </CharString>
          <CharString index="185">
            1479 -75 callsubr
            return
          </CharString>
          <CharString index="186">
            -22 rmoveto
            320 206 200 288 233 -166 159 -259 -111 -111 -40 -54 -48 hvcurveto
            -17 hlineto
            return
          </CharString>
          <CharString index="187">
            rmoveto
            909 -497 61 356 -495 242 3 16 578 236 68 374 -1086 -510 rlineto
            endchar
          </CharString>
          <CharString index="188">
            63 callsubr
            22 hvcurveto
            return
          </CharString>
          <CharString index="189">
            101 133 33 3 41 8 43 hvcurveto
            return
          </CharString>
          <CharString index="190">
            rlineto
            337 hlineto
            56 317 rlineto
            -1077 hlineto
            -57 -317 rlineto
            346 hlineto
            -184 -1047 59 callsubr
            return
          </CharString>
          <CharString index="191">
            -383 hlineto
            -187 -1060 rlineto
            -69 -12 -48 -37 -77 hhcurveto
            return
          </CharString>
          <CharString index="192" raw="1">
            fbb115f7 e206f765 f87d0b 
          </CharString>
          <CharString index="193" raw="1">
            fb4f054e da1da2c5 880b 
          </CharString>
          <CharString index="194">
            75 callgsubr
            -77 return
          </CharString>
          <CharString index="195">
            96 57 56 86 86 return
          </CharString>
          <CharString index="196">
            rlineto
            -283 hlineto
            return
          </CharString>
          <CharString index="197">
            rmoveto
            -219 -162 -180 -293 -53 hvcurveto
            -13 -68 rlineto
            -10 -51 -4 -55 -59 vvcurveto
            -245 return
          </CharString>
          <CharString index="198">
            hhcurveto
            -100 -28 70 73 hvcurveto
            2 0 1 1 vvcurveto
            endchar
          </CharString>
          <CharString index="199">
            215 rlineto
            61 44 65 42 82 hhcurveto
            103 49 -59 -96 -111 -57 -122 -141 -37 return
          </CharString>
          <CharString index="200" raw="1">
            d315fbde 064cfbf9 05f7de06 0b
          </CharString>
          <CharString index="201">
            hlineto
            81 21 62 callgsubr
            return
          </CharString>
          <CharString index="202">
            455 hmoveto
            -57 callgsubr
          </CharString>
          <CharString index="203">
            rlineto
            -382 hlineto
            -38 -212 rlineto
            -20 hlineto
            128 -20 -117 94 -157 hhcurveto
            return
          </CharString>
          <CharString index="204">
            316 rmoveto
            1848 hlineto
            return
          </CharString>
          <CharString index="205">
            vvcurveto
            32 -2 33 -6 28 vhcurveto
            -382 hlineto
            4 -29 2 -30 -32 vvcurveto
            -261 return
          </CharString>
          <CharString index="206">
            265 -8 callgsubr
            -64 -626 rlineto
            319 hlineto
            157 626 rlineto
            return
          </CharString>
          <CharString index="207">
            rmoveto
            310 1754 rlineto
            -339 hlineto
            -310 -1754 rlineto
            endchar
          </CharString>
          <CharString index="208">
            -3 -17 127 callsubr
            return
          </CharString>
          <CharString index="209">
            hvcurveto
            107 callgsubr
            -6 return
          </CharString>
          <CharString index="210" raw="1">
            fba5f97c f90315fd 36066afb 5105f936
            060b   
          </CharString>
          <CharString index="211">
            17 callgsubr
            -7 return
          </CharString>
          <CharString index="212">
            -94 callsubr
            395 hlineto
            return
          </CharString>
          <CharString index="213">
            -71 rlineto
            57 hlineto
            81 return
          </CharString>
          <CharString index="214">
            rmoveto
            119 callsubr
            -162 hlineto
            185 1049 rlineto
            -395 hlineto
            return
          </CharString>
          <CharString index="215">
            1437 rmoveto
            -95 -492 rlineto
            247 hlineto
            150 492 rlineto
            return
          </CharString>
          <CharString index="216">
            46 callsubr
            endchar
          </CharString>
          <CharString index="217">
            -42 -5 -29 hvcurveto
            return
          </CharString>
          <CharString index="218">
            hlineto
            267 -384 -1 -6 -411 -424 rlineto
            329 hlineto
            return
          </CharString>
          <CharString index="219" raw="1">
            fb9705f7 111d0b  
          </CharString>
          <CharString index="220">
            -11 95 callgsubr
            return
          </CharString>
          <CharString index="221">
            rmoveto
            59 339 rlineto
            return
          </CharString>
          <CharString index="222">
            hlineto
            -56 -315 rlineto
            return
          </CharString>
          <CharString index="223">
            927 -26 callsubr
            return
          </CharString>
          <CharString index="224" raw="1">
            f9b415bb f7a705fd 7a065bfb a7050b
          </CharString>
          <CharString index="225">
            rmoveto
            60 340 rlineto
            -618 hlineto
            -59 -340 rlineto
            endchar
          </CharString>
          <CharString index="226">
            106 601 rlineto
            return
          </CharString>
          <CharString index="227" raw="1">
            fc130677 fb04054f 805f6f33 1b0b
          </CharString>
          <CharString index="228">
            hlineto
            54 306 rlineto
            return
          </CharString>
          <CharString index="229">
            rmoveto
            209 37 return
          </CharString>
          <CharString index="230">
            rmoveto
            762 438 -607 438 rlineto
            endchar
          </CharString>
          <CharString index="231">
            14 1 12 12 vvcurveto
            89 return
          </CharString>
          <CharString index="232" raw="1">
            f750f712 f7740b  
          </CharString>
          <CharString index="233">
            -366 hlineto
            -105 return
          </CharString>
          <CharString index="234">
            hvcurveto
            -12 -64 rlineto
            return
          </CharString>
          <CharString index="235" raw="1">
            1bfc20fb befb70fb f7421f0b 
          </CharString>
          <CharString index="236">
            -23 vhcurveto
            -2 -74 -15 -2 -1 -79 -16 -2 hhcurveto
            return
          </CharString>
          <CharString index="237" raw="1">
            15c0f7c2 05886c5e 89531b0b 
          </CharString>
          <CharString index="238" raw="1">
            fb37f709 f762a20b  
          </CharString>
          <CharString index="239">
            hlineto
            -50 -285 rlineto
            return
          </CharString>
          <CharString index="240">
            hlineto
            99 561 rlineto
            return
          </CharString>
          <CharString index="241">
            rlineto
            -421 hlineto
            return
          </CharString>
          <CharString index="242">
            22 3 49 4 22 hvcurveto
            101 578 rlineto
            return
          </CharString>
          <CharString index="243" raw="1">
            f8b815bb f79f05fd ef060b 
          </CharString>
        <CharString name=".notdef">
          784 -74 -494 rmoveto
          1848 hlineto
          25 88 callgsubr
          56 97 callsubr
          25 88 callgsubr
          56 97 callsubr
          25 88 callgsubr
          56 97 callsubr
          25 88 callgsubr
          56 97 callsubr
          26 88 callgsubr
          55 97 callsubr
          26 88 callgsubr
          endchar
        </CharString>
        <CharString name=".null">
          endchar
        </CharString>
        <CharString name="A">
          104 -70 -103 callsubr
          endchar
        </CharString>
        <CharString name="AE">
          698 972 -37 callsubr
          endchar
        </CharString>
        <CharString name="AEacute">
          698 972 -37 callsubr
          533 1244 -71 callgsubr
        </CharString>
        <CharString name="AEmacron">
          698 972 -37 callsubr
          1063 1397 -44 callsubr
        </CharString>
        <CharString name="Aacute">
          104 -70 -103 callsubr
          -81 464 -71 callgsubr
        </CharString>
        <CharString name="Abreve">
          104 -70 -103 callsubr
          -208 758 -69 callgsubr
          endchar
        </CharString>
        <CharString name="Abreveacute">
          104 -70 -103 callsubr
          -190 705 -5 callsubr
          13 18 rmoveto
          218 hlineto
          234 191 rlineto
          -278 hlineto
          endchar
        </CharString>
        <CharString name="Abrevedotbelow">
          104 -70 -103 callsubr
          -208 758 -69 callgsubr
          -363 -2034 -96 callgsubr
        </CharString>
        <CharString name="Abrevegrave">
          104 -70 -103 callsubr
          -190 705 -5 callsubr
          261 18 rmoveto
          -165 191 rlineto
          -277 hlineto
          216 -191 rlineto
          endchar
        </CharString>
        <CharString name="Abrevehookabove">
          104 -70 -103 callsubr
          -173 658 16 callgsubr
        </CharString>
        <CharString name="Abrevetilde">
          104 -70 -103 callsubr
          -171 656 11 callsubr
        </CharString>
        <CharString name="Acaron">
          104 -70 -103 callsubr
          525 705 -82 callgsubr
          endchar
        </CharString>
        <CharString name="Acircumflex">
          104 -70 -103 callsubr
          -302 448 -75 callsubr
          endchar
        </CharString>
        <CharString name="Acircumflexacute">
          20 callsubr
          404 -82 rmoveto
          226 hlineto
          296 253 rlineto
          -268 hlineto
          endchar
        </CharString>
        <CharString name="Acircumflexdotbelow">
          104 -70 -103 callsubr
          -302 448 -75 callsubr
          -351 -1975 -96 callgsubr
        </CharString>
        <CharString name="Acircumflexgrave">
          20 callsubr
          700 -82 rmoveto
          -178 253 rlineto
          -241 hlineto
          193 -253 rlineto
          endchar
        </CharString>
        <CharString name="Acircumflexhookabove">
          20 callsubr
          313 83 rmoveto
          3 14 12 2 28 hhcurveto
          48 32 -26 -39 -25 -13 -18 -27 -17 hvcurveto
          82 -87 rlineto
          55 30 62 58 80 vvcurveto
          119 -90 37 -110 -40 -38 -6 -5 -13 vhcurveto
          endchar
        </CharString>
        <CharString name="Acircumflextilde">
          104 -70 -103 callsubr
          -260 463 -36 callsubr
        </CharString>
        <CharString name="Acyrillic">
          124 -60 -103 callsubr
          endchar
        </CharString>
        <CharString name="Adblgrave">
          104 -70 -103 callsubr
          12 464 -34 callsubr
          endchar
        </CharString>
        <CharString name="Adieresis">
          104 -70 -103 callsubr
          -231 549 -100 callgsubr
        </CharString>
        <CharString name="Adieresismacron">
          104 -70 -103 callsubr
          489 900 -24 callsubr
        </CharString>
        <CharString name="Adotaccent">
          104 -70 -103 callsubr
          -39 616 -77 callsubr
        </CharString>
        <CharString name="Adotbelow">
          104 -70 -103 callsubr
          -374 -1276 -96 callgsubr
        </CharString>
        <CharString name="Adotmacron">
          104 -70 -103 callsubr
          -53 530 30 callgsubr
        </CharString>
        <CharString name="Agrave">
          104 -70 -103 callsubr
          228 464 -27 callgsubr
        </CharString>
        <CharString name="Ahookabove">
          104 -70 -103 callsubr
          -30 663 -63 callgsubr
          endchar
        </CharString>
        <CharString name="Ainvertedbreve">
          104 -70 -103 callsubr
          441 432 -49 callsubr
          endchar
        </CharString>
        <CharString name="Alphagreek">
          104 -70 -103 callsubr
          endchar
        </CharString>
        <CharString name="Alphatonosgreek">
          350 176 -103 callsubr
          -807 -78 -23 callsubr
        </CharString>
        <CharString name="Amacron">
          104 -70 -103 callsubr
          449 617 -44 callsubr
        </CharString>
        <CharString name="Aogonek">
          104 1069 -391 rmoveto
          58 82 11 12 30 hvcurveto
          33 189 rlineto
          -2 -10 -38 -4 -25 hhcurveto
          -82 -27 42 47 4 hvcurveto
          5 66 52 50 103 46 -172 1298 rcurveline
          -497 hlineto
          -655 -1364 rlineto
          399 hlineto
          114 274 rlineto
          376 hlineto
          17 -269 rlineto
          110 -16 hlineto
          -39 -30 -58 -47 -14 -90 rrcurveto
          -136 -21 108 -77 147 hhcurveto
          -290 1422 rmoveto
          26 -478 rlineto
          -246 hlineto
          199 478 rlineto
          endchar
        </CharString>
        <CharString name="Aring">
          104 -70 -103 callsubr
          125 567 7 callsubr
        </CharString>
        <CharString name="Aringacute">
          104 -70 -103 callsubr
          -1 773 32 callsubr
        </CharString>
        <CharString name="Aringbelow">
          104 -70 -103 callsubr
          -207 -1423 -81 callsubr
        </CharString>
        <CharString name="Atilde">
          104 -70 -103 callsubr
          216 419 -89 callsubr
          endchar
        </CharString>
        <CharString name="B">
          89 50 -75 callgsubr
          endchar
        </CharString>
        <CharString name="Bdotaccent">
          89 50 -75 callgsubr
          231 1385 -77 callsubr
        </CharString>
        <CharString name="Bdotbelow">
          89 50 -75 callgsubr
          -99 -507 -96 callgsubr
        </CharString>
        <CharString name="Becyrillic">
          69 664 hmoveto
          334 188 161 212 50 hvcurveto
          9 37 5 39 39 vvcurveto
          246 -174 145 -291 vhcurveto
          -175 hlineto
          30 175 rlineto
          578 hlineto
          55 310 rlineto
          -973 -94 callsubr
          449 308 rmoveto
          51 294 rlineto
          134 hlineto
          82 79 -34 -98 -17 -3 -18 -6 -15 hvcurveto
          -66 -22 -69 -46 -112 hhcurveto
          endchar
        </CharString>
        <CharString name="Betagreek">
          89 50 -75 callgsubr
          endchar
        </CharString>
        <CharString name="Blinebelow">
          89 50 -75 callgsubr
          372 -624 -79 callgsubr
        </CharString>
        <CharString name="C">
          85 536 770 -90 callsubr
          endchar
        </CharString>
        <CharString name="Cacute">
          85 536 770 -90 callsubr
          180 838 -71 callgsubr
        </CharString>
        <CharString name="Ccaron">
          85 536 770 -90 callsubr
          786 1079 -82 callgsubr
          endchar
        </CharString>
        <CharString name="Ccedilla">
          85 561 -68 callgsubr
          endchar
        </CharString>
        <CharString name="Ccedillaacute">
          85 561 -68 callgsubr
          134 1973 -71 callgsubr
        </CharString>
        <CharString name="Ccircumflex">
          85 536 770 -90 callsubr
          -69 822 -75 callsubr
          endchar
        </CharString>
        <CharString name="Cdotaccent">
          85 536 770 -90 callsubr
          222 990 -77 callsubr
        </CharString>
        <CharString name="Checyrillic">
          27 callsubr
          endchar
        </CharString>
        <CharString name="Chigreek">
          72 1043 1364 -55 callsubr
          endchar
        </CharString>
        <CharString name="D">
          140 -95 callgsubr
          endchar
        </CharString>
        <CharString name="Dcaron">
          140 -95 callgsubr
          802 1424 -82 callgsubr
          endchar
        </CharString>
        <CharString name="Dcircumflexbelow">
          140 -95 callgsubr
          -364 -736 -58 callgsubr
          endchar
        </CharString>
        <CharString name="Dcommaaccent">
          140 -95 callgsubr
          123 -779 -32 callgsubr
        </CharString>
        <CharString name="Dcroat">
          -2 callgsubr
        </CharString>
        <CharString name="Ddotaccent">
          140 -95 callgsubr
          238 1335 -77 callsubr
        </CharString>
        <CharString name="Ddotbelow">
          140 -95 callgsubr
          -97 -557 -96 callgsubr
        </CharString>
        <CharString name="Decyrillic">
          275 916 315 rmoveto
          -415 hlineto
          3 19 75 88 34 111 44 204 rlinecurve
          69 313 rlineto
          319 hlineto
          -802 -1336 rmoveto
          50 286 rlineto
          767 76 callgsubr
          349 hlineto
          105 601 rlineto
          -162 hlineto
          186 1049 rlineto
          -1044 hlineto
          -123 -565 -56 -263 -40 -142 -116 -79 rlinecurve
          -108 hlineto
          -106 -601 rlineto
          endchar
        </CharString>
        <CharString name="Deltagreek">
          97 1250 185 rmoveto
          -170 1180 rlineto
          -497 hlineto
          -582 -1180 -33 -185 rlineto
          1250 hlineto
          -441 1040 rmoveto
          65 -761 rlineto
          -423 hlineto
          337 761 rlineto
          endchar
        </CharString>
        <CharString name="Djecyrillic">
          339 1008 79 callsubr
          50 283 83 callsubr
          82 468 rlineto
          48 38 77 callgsubr
        </CharString>
        <CharString name="Dlinebelow">
          140 -95 callgsubr
          374 -674 -79 callgsubr
        </CharString>
        <CharString name="Dzecyrillic">
          50 64 429 rmoveto
          -101 callgsubr
          endchar
        </CharString>
        <CharString name="Dzhecyrillic">
          234 488 hmoveto
          -50 -286 rlineto
          348 hlineto
          50 286 rlineto
          428 37 callgsubr
          -395 hlineto
          -185 -1049 rlineto
          -415 hlineto
          186 1049 rlineto
          -396 29 callsubr
          endchar
        </CharString>
        <CharString name="E">
          -98 callsubr
          endchar
        </CharString>
        <CharString name="Eacute">
          -98 callsubr
          -400 1495 -71 callgsubr
        </CharString>
        <CharString name="Ebreve">
          -98 callsubr
          -527 1789 -69 callgsubr
          endchar
        </CharString>
        <CharString name="Ecaron">
          -98 callsubr
          206 1736 -82 callgsubr
          endchar
        </CharString>
        <CharString name="Ecedilla">
          2 callsubr
          endchar
        </CharString>
        <CharString name="Ecedillabreve">
          2 callsubr
          429 1789 -69 callgsubr
          endchar
        </CharString>
        <CharString name="Ecircumflex">
          -98 callsubr
          -621 78 callsubr
          endchar
        </CharString>
        <CharString name="Ecircumflexacute">
          -98 callsubr
          -631 1494 -46 callgsubr
          404 -82 rmoveto
          226 hlineto
          296 253 rlineto
          -268 hlineto
          endchar
        </CharString>
        <CharString name="Ecircumflexbelow">
          -98 callsubr
          -962 -424 -58 callgsubr
          endchar
        </CharString>
        <CharString name="Ecircumflexdotbelow">
          -98 callsubr
          -621 78 callsubr
          -353 -1975 -96 callgsubr
        </CharString>
        <CharString name="Ecircumflexgrave">
          -98 callsubr
          -631 1494 -46 callgsubr
          700 -82 rmoveto
          -178 253 rlineto
          -241 hlineto
          193 -253 rlineto
          endchar
        </CharString>
        <CharString name="Ecircumflexhookabove">
          -98 callsubr
          -631 1494 -46 callgsubr
          313 83 rmoveto
          3 14 12 2 28 hhcurveto
          48 32 -26 -39 -25 -13 -18 -27 -17 hvcurveto
          82 -87 rlineto
          55 30 62 58 80 vvcurveto
          119 -90 37 -110 -40 -38 -6 -5 -13 vhcurveto
          endchar
        </CharString>
        <CharString name="Ecircumflextilde">
          -98 callsubr
          -579 1494 -36 callsubr
        </CharString>
        <CharString name="Ecyrillic">
          -15 callsubr
          endchar
        </CharString>
        <CharString name="Edblgrave">
          -98 callsubr
          -307 1495 -34 callsubr
          endchar
        </CharString>
        <CharString name="Edieresis">
          -98 callsubr
          -550 19 callgsubr
          endchar
        </CharString>
        <CharString name="Edotaccent">
          -98 callsubr
          -358 1647 -77 callsubr
        </CharString>
        <CharString name="Edotbelow">
          -98 callsubr
          -695 45 callgsubr
          endchar
        </CharString>
        <CharString name="Efcyrillic">
          504 1199 1250 rmoveto
          22 124 rlineto
          -368 hlineto
          -21 -125 rlineto
          1 -14 -16 0 -13 hhcurveto
          -392 -205 -181 -264 -48 hvcurveto
          -17 -91 rlineto
          -5 -32 -4 -31 -31 vvcurveto
          -4 -245 167 -207 354 -46 -22 -132 rcurveline
          367 hlineto
          24 133 rlineto
          -1 13 16 0 14 hhcurveto
          391 205 180 264 48 hvcurveto
          16 91 rlineto
          6 32 4 32 31 vvcurveto
          3 244 -166 208 -355 46 rrcurveto
          -696 -632 rmoveto
          16 2 17 2 17 vhcurveto
          12 70 22 138 82 75 167 4 rlinecurve
          -94 -540 -136 22 -61 70 4 111 rlinecurve
          824 85 rmoveto
          -11 -70 -23 -138 -82 -74 -166 -4 rlinecurve
          94 540 135 -23 61 -70 -3 -111 rlinecurve
          -15 -2 -18 -3 -17 vhcurveto
          endchar
        </CharString>
        <CharString name="Egrave">
          -98 callsubr
          -91 1495 -27 callgsubr
        </CharString>
        <CharString name="Ehookabove">
          -98 callsubr
          -349 1694 -63 callgsubr
          endchar
        </CharString>
        <CharString name="Einvertedbreve">
          -98 callsubr
          122 1463 -49 callsubr
          endchar
        </CharString>
        <CharString name="Elcyrillic">
          163 300 799 -42 callgsubr
        </CharString>
        <CharString name="Emacron">
          -98 callsubr
          130 1648 -44 callsubr
        </CharString>
        <CharString name="Emacronacute">
          -98 callsubr
          -347 1754 44 callgsubr
        </CharString>
        <CharString name="Emacrongrave">
          -98 callsubr
          130 70 callgsubr
        </CharString>
        <CharString name="Emcyrillic">
          460 414 -68 callsubr
          endchar
        </CharString>
        <CharString name="Encyrillic">
          243 455 hmoveto
          -87 callgsubr
          endchar
        </CharString>
        <CharString name="Eogonek">
          -68 771 -391 rmoveto
          59 74 12 11 38 hvcurveto
          33 189 rlineto
          -3 -16 -30 -3 -20 hhcurveto
          -67 -46 33 57 9 hvcurveto
          13 87 103 57 98 22 42 241 rcurveline
          -562 hlineto
          41 232 rlineto
          527 hlineto
          49 277 rlineto
          -527 hlineto
          42 231 rlineto
          560 hlineto
          56 312 rlineto
          -957 29 callsubr
          603 -17 hlineto
          -57 -41 -48 -60 -8 -70 rrcurveto
          -139 -17 108 -64 141 hhcurveto
          endchar
        </CharString>
        <CharString name="Epsilongreek">
          -98 callsubr
          endchar
        </CharString>
        <CharString name="Epsilontonosgreek">
          468 1507 -102 callsubr
          -1302 953 -23 callsubr
        </CharString>
        <CharString name="Ercyrillic">
          39 454 hmoveto
          -73 callsubr
          endchar
        </CharString>
        <CharString name="Ereversedcyrillic">
          -90 callgsubr
          endchar
        </CharString>
        <CharString name="Escyrillic">
          105 546 770 -90 callsubr
          endchar
        </CharString>
        <CharString name="Etagreek">
          242 445 hmoveto
          -87 callgsubr
          endchar
        </CharString>
        <CharString name="Etatonosgreek">
          759 891 hmoveto
          -87 callgsubr
          -346 953 -23 callsubr
        </CharString>
        <CharString name="Eth">
          -2 callgsubr
        </CharString>
        <CharString name="Etilde">
          -98 callsubr
          -103 1450 -89 callsubr
          endchar
        </CharString>
        <CharString name="Etildebelow">
          -98 callsubr
          -439 -446 -65 callgsubr
          endchar
        </CharString>
        <CharString name="Euro">
          37 1295 1340 rmoveto
          25 -52 -138 23 -101 hhcurveto
          -357 -276 -179 -295 -105 hvcurveto
          -118 hlineto
          -29 -168 rlineto
          105 hlineto
          -7 -36 -6 -28 -4 -30 -2 -31 rlinecurve
          -108 hlineto
          -30 -167 rlineto
          150 hlineto
          -292 62 285 -186 397 hhcurveto
          33 32 2 3 28 hvcurveto
          53 302 rlineto
          -4 -19 -25 -1 -34 hhcurveto
          -202 -142 62 114 -61 hvcurveto
          339 hlineto
          30 167 rlineto
          -404 hlineto
          1 17 2 19 4 17 12 72 rcurveline
          407 hlineto
          30 168 rlineto
          -379 hlineto
          108 68 123 62 152 hhcurveto
          80 103 -18 -23 49 hvcurveto
          endchar
        </CharString>
        <CharString name="F">
          -108 445 28 callgsubr
          endchar
        </CharString>
        <CharString name="Fdotaccent">
          -108 445 28 callgsubr
          599 1647 -77 callsubr
        </CharString>
        <CharString name="G">
          -96 callsubr
          endchar
        </CharString>
        <CharString name="Gacute">
          -96 callsubr
          558 660 -71 callgsubr
        </CharString>
        <CharString name="Gammagreek">
          -129 49 hmoveto
          396 hlineto
          186 1055 rlineto
          537 hlineto
          55 310 rlineto
          -933 hlineto
          endchar
        </CharString>
        <CharString name="Gbreve">
          -96 callsubr
          431 954 -69 callgsubr
          endchar
        </CharString>
        <CharString name="Gcaron">
          -96 callsubr
          1164 901 -82 callgsubr
          endchar
        </CharString>
        <CharString name="Gcircumflex">
          -96 callsubr
          337 644 -75 callsubr
          endchar
        </CharString>
        <CharString name="Gcommaaccent">
          -96 callsubr
          492 -1302 -32 callgsubr
        </CharString>
        <CharString name="Gdotaccent">
          -96 callsubr
          600 812 -77 callsubr
        </CharString>
        <CharString name="Gecyrillic">
          -102 455 hmoveto
          22 callgsubr
          endchar
        </CharString>
        <CharString name="Geupturncyrillic">
          -102 896 -8 callgsubr
          -596 29 callsubr
          395 hlineto
          186 1054 rlineto
          550 hlineto
          105 597 rlineto
          -349 hlineto
          endchar
        </CharString>
        <CharString name="Gjecyrillic">
          -102 455 hmoveto
          22 callgsubr
          540 1495 -71 callgsubr
        </CharString>
        <CharString name="Gmacron">
          -96 callsubr
          1088 813 -44 callsubr
        </CharString>
        <CharString name="H">
          224 445 hmoveto
          -87 callgsubr
          endchar
        </CharString>
        <CharString name="Hardsigncyrillic">
          276 903 682 rmoveto
          77 93 -39 -116 -23 -3 -24 -6 -20 hvcurveto
          -89 -23 -78 -63 -111 hhcurveto
          -125 hlineto
          66 374 rlineto
          -514 -682 rmoveto
          604 115 callgsubr
          184 234 49 hvcurveto
          9 41 4 43 43 vvcurveto
          263 -173 156 -291 vhcurveto
          -161 hlineto
          70 400 rlineto
          -726 115 callsubr
          332 hlineto
          endchar
        </CharString>
        <CharString name="Hbar">
          225 588 804 rmoveto
          24 134 rlineto
          425 hlineto
          -24 -134 rlineto
          -481 -316 rmoveto
          426 hlineto
          -88 -488 59 callsubr
          165 938 rlineto
          94 hlineto
          55 316 rlineto
          -94 hlineto
          20 110 rlineto
          -395 hlineto
          -19 -110 rlineto
          -426 hlineto
          20 110 rlineto
          -396 hlineto
          -18 -110 rlineto
          -93 hlineto
          -56 -316 rlineto
          93 hlineto
          -165 -938 59 callsubr
          endchar
        </CharString>
        <CharString name="Hbrevebelow">
          224 445 hmoveto
          -87 callgsubr
          235 -112 14 callgsubr
        </CharString>
        <CharString name="Hcaron">
          224 445 hmoveto
          -87 callgsubr
          1301 1736 -82 callgsubr
          endchar
        </CharString>
        <CharString name="Hcedilla">
          224 244 hmoveto
          -32 -165 -12 121 callgsubr
          hvcurveto
          -4 0 -4 -4 vvcurveto
          54 callgsubr
          -87 callgsubr
          endchar
        </CharString>
        <CharString name="Hcircumflex">
          224 445 hmoveto
          -87 callgsubr
          474 78 callsubr
          endchar
        </CharString>
        <CharString name="Hdieresis">
          224 445 hmoveto
          -87 callgsubr
          545 19 callgsubr
          endchar
        </CharString>
        <CharString name="Hdotaccent">
          224 445 hmoveto
          -87 callgsubr
          737 1647 -77 callsubr
        </CharString>
        <CharString name="Hdotbelow">
          224 445 hmoveto
          -87 callgsubr
          401 45 callgsubr
          endchar
        </CharString>
        <CharString name="I">
          -596 -56 callsubr
          endchar
        </CharString>
        <CharString name="I.1">
          -145 1100 1059 rmoveto
          54 306 rlineto
          -882 hlineto
          -54 -306 rlineto
          244 hlineto
          -132 -752 rlineto
          -244 hlineto
          -54 -307 rlineto
          244 hlineto
          395 hlineto
          243 hlineto
          54 307 rlineto
          -243 hlineto
          132 752 rlineto
          endchar
        </CharString>
        <CharString name="IAcyrillic">
          -66 callsubr
          endchar
        </CharString>
        <CharString name="IJ">
          626 -56 callsubr
          1867 -60 callsubr
          endchar
        </CharString>
        <CharString name="IJacute">
          626 -56 callsubr
          1867 -60 callsubr
          -1436 1062 rmoveto
          268 hlineto
          334 319 rlineto
          -311 hlineto
          927 -319 -71 callgsubr
        </CharString>
        <CharString name="IUcyrillic">
          -88 callsubr
          endchar
        </CharString>
        <CharString name="Iacute">
          -596 -56 callsubr
          288 1495 -71 callgsubr
        </CharString>
        <CharString name="Iacute.1">
          -145 1131 1814 rmoveto
          -311 hlineto
          -291 -319 rlineto
          268 hlineto
          303 -436 rmoveto
          54 306 rlineto
          -882 hlineto
          -54 -306 rlineto
          244 hlineto
          -132 -752 rlineto
          -244 hlineto
          -54 -307 rlineto
          244 hlineto
          395 hlineto
          243 hlineto
          54 307 rlineto
          -243 hlineto
          132 752 rlineto
          endchar
        </CharString>
        <CharString name="Ibreve">
          -596 -56 callsubr
          161 1789 -69 callgsubr
          endchar
        </CharString>
        <CharString name="Ibreve.1">
          -145 937 1789 rmoveto
          -96 -21 -72 -49 -75 hhcurveto
          -102 -28 71 73 hvcurveto
          1 -197 vlineto
          -3 -17 -5 -29 -19 vvcurveto
          -173 148 -95 156 208 155 112 221 35 vhcurveto
          -36 -730 rmoveto
          54 306 rlineto
          -882 hlineto
          -54 -306 rlineto
          244 hlineto
          -132 -752 rlineto
          -244 hlineto
          -54 -307 rlineto
          244 hlineto
          395 hlineto
          243 hlineto
          54 307 rlineto
          -243 hlineto
          132 752 rlineto
          endchar
        </CharString>
        <CharString name="Icaron">
          -596 -56 callsubr
          894 1736 -82 callgsubr
          endchar
        </CharString>
        <CharString name="Icaron.1">
          -145 888 1485 rmoveto
          279 251 rlineto
          -277 hlineto
          -124 -113 rlineto
          -22 hlineto
          -94 113 rlineto
          -269 hlineto
          223 -251 rlineto
          -386 -426 rmoveto
          244 hlineto
          -132 -752 rlineto
          -244 hlineto
          -54 -307 rlineto
          244 hlineto
          395 hlineto
          243 hlineto
          54 307 rlineto
          -243 hlineto
          132 752 rlineto
          243 hlineto
          54 306 rlineto
          -882 hlineto
          endchar
        </CharString>
        <CharString name="Icircumflex">
          -596 -56 callsubr
          67 78 callsubr
          endchar
        </CharString>
        <CharString name="Icircumflex.1">
          -145 738 1591 rmoveto
          22 hlineto
          95 -112 rlineto
          268 hlineto
          -222 251 rlineto
          -284 hlineto
          -279 -251 rlineto
          276 hlineto
          486 -420 rmoveto
          54 306 rlineto
          -882 hlineto
          -54 -306 rlineto
          244 hlineto
          -132 -752 rlineto
          -244 hlineto
          -54 -307 rlineto
          244 hlineto
          395 hlineto
          243 hlineto
          54 307 rlineto
          -243 hlineto
          132 752 rlineto
          endchar
        </CharString>
        <CharString name="Icyrillic">
          -576 95 callsubr
        </CharString>
        <CharString name="Icyrillic.1">
          -125 1110 1059 rmoveto
          54 306 rlineto
          -882 hlineto
          -54 -306 rlineto
          244 hlineto
          -132 -752 rlineto
          -244 hlineto
          -54 -307 rlineto
          244 hlineto
          395 hlineto
          243 hlineto
          54 307 rlineto
          -243 hlineto
          132 752 rlineto
          endchar
        </CharString>
        <CharString name="Idblgrave">
          -596 -56 callsubr
          381 1495 -34 callsubr
          endchar
        </CharString>
        <CharString name="Idblgrave.1">
          -145 1082 1495 rmoveto
          -177 319 rlineto
          -303 hlineto
          229 -319 rlineto
          -199 0 rmoveto
          -177 319 rlineto
          -303 hlineto
          229 -319 rlineto
          719 -436 rmoveto
          54 306 rlineto
          -882 hlineto
          -54 -306 rlineto
          244 hlineto
          -132 -752 rlineto
          -244 hlineto
          -54 -307 rlineto
          244 hlineto
          395 hlineto
          243 hlineto
          54 307 rlineto
          -243 hlineto
          132 752 rlineto
          endchar
        </CharString>
        <CharString name="Idieresis">
          -596 -56 callsubr
          138 19 callgsubr
          endchar
        </CharString>
        <CharString name="Idieresis.1">
          -145 953 1449 rmoveto
          78 55 59 72 72 -55 59 -78 -78 -55 -59 -72 -72 55 -59 78 hvcurveto
          -409 0 rmoveto
          77 55 59 72 72 -55 59 -77 -78 -55 -59 -72 -72 55 -59 78 hvcurveto
          556 -390 rmoveto
          54 306 rlineto
          -882 hlineto
          -54 -306 rlineto
          244 hlineto
          -132 -752 rlineto
          -244 hlineto
          -54 -307 rlineto
          244 hlineto
          395 hlineto
          243 hlineto
          54 307 rlineto
          -243 hlineto
          132 752 rlineto
          endchar
        </CharString>
        <CharString name="Idieresisacute">
          -596 -56 callsubr
          351 1 callgsubr
          endchar
        </CharString>
        <CharString name="Idieresisacute.1">
          -145 1090 1945 rmoveto
          -283 hlineto
          -184 -190 rlineto
          232 hlineto
          -36 -175 rmoveto
          -72 55 -59 78 78 55 59 72 72 -55 59 -78 -78 -55 -59 -72 vhcurveto
          -276 -131 rmoveto
          77 55 59 72 72 -55 59 -77 -78 -55 -59 -72 -72 55 -59 78 hvcurveto
          557 -390 rmoveto
          54 306 rlineto
          -882 hlineto
          -54 -306 rlineto
          244 hlineto
          -132 -752 rlineto
          -244 hlineto
          -54 -307 rlineto
          244 hlineto
          395 hlineto
          243 hlineto
          54 307 rlineto
          -243 hlineto
          132 752 rlineto
          endchar
        </CharString>
        <CharString name="Idotaccent">
          -596 -56 callsubr
          330 1647 -77 callsubr
        </CharString>
        <CharString name="Idotaccent.1">
          -145 751 1489 rmoveto
          87 71 70 88 88 -71 70 -87 -88 -70 -70 -88 -88 70 -70 88 hvcurveto
          349 -430 rmoveto
          54 306 rlineto
          -882 hlineto
          -54 -306 rlineto
          244 hlineto
          -132 -752 rlineto
          -244 hlineto
          -54 -307 rlineto
          244 hlineto
          395 hlineto
          243 hlineto
          54 307 rlineto
          -243 hlineto
          132 752 rlineto
          endchar
        </CharString>
        <CharString name="Idotbelow">
          -596 -56 callsubr
          -6 45 callgsubr
          endchar
        </CharString>
        <CharString name="Idotbelow.1">
          -145 436 -93 rmoveto
          -91 -70 -55 -97 -97 71 -55 90 90 71 55 97 95 -70 57 -91 hvcurveto
          664 1152 rmoveto
          54 306 rlineto
          -882 hlineto
          -54 -306 rlineto
          244 hlineto
          -132 -752 rlineto
          -244 hlineto
          -54 -307 rlineto
          244 hlineto
          395 hlineto
          243 hlineto
          54 307 rlineto
          -243 hlineto
          132 752 rlineto
          endchar
        </CharString>
        <CharString name="Iecyrillic">
          -48 1071 -102 callsubr
          endchar
        </CharString>
        <CharString name="Igrave">
          -596 -56 callsubr
          597 1495 -27 callgsubr
        </CharString>
        <CharString name="Igrave.1">
          -145 908 1495 rmoveto
          -178 319 rlineto
          -305 hlineto
          229 -319 rlineto
          446 -436 rmoveto
          54 306 rlineto
          -882 hlineto
          -54 -306 rlineto
          244 hlineto
          -132 -752 rlineto
          -244 hlineto
          -54 -307 rlineto
          244 hlineto
          395 hlineto
          243 hlineto
          54 307 rlineto
          -243 hlineto
          132 752 rlineto
          endchar
        </CharString>
        <CharString name="Ihookabove">
          -596 -56 callsubr
          339 1694 -63 callgsubr
          endchar
        </CharString>
        <CharString name="Ihookabove.1">
          -145 761 1443 rmoveto
          120 44 82 85 109 vvcurveto
          100 -110 63 -98 -56 -38 -6 -9 -22 vhcurveto
          -21 -138 rlineto
          7 23 23 4 32 hhcurveto
          49 34 -27 -30 -42 -30 -24 -63 -32 hvcurveto
          414 -488 rmoveto
          54 306 rlineto
          -882 hlineto
          -54 -306 rlineto
          244 hlineto
          -132 -752 rlineto
          -244 hlineto
          -54 -307 rlineto
          244 hlineto
          395 hlineto
          243 hlineto
          54 307 rlineto
          -243 hlineto
          132 752 rlineto
          endchar
        </CharString>
        <CharString name="Iicyrillic">
          243 897 hmoveto
          -52 callgsubr
          endchar
        </CharString>
        <CharString name="Iinvertedbreve">
          -596 -56 callsubr
          810 1463 -49 callsubr
          endchar
        </CharString>
        <CharString name="Iinvertedbreve.1">
          -145 864 1463 rmoveto
          197 hlineto
          3 17 4 30 18 vvcurveto
          174 -147 94 -157 -208 -154 -112 -221 -36 vhcurveto
          200 hlineto
          96 21 72 50 75 hhcurveto
          102 28 -71 -74 hvcurveto
          236 -405 rmoveto
          54 306 rlineto
          -882 hlineto
          -54 -306 rlineto
          244 hlineto
          -132 -752 rlineto
          -244 hlineto
          -54 -307 rlineto
          244 hlineto
          395 hlineto
          243 hlineto
          54 307 rlineto
          -243 hlineto
          132 752 rlineto
          endchar
        </CharString>
        <CharString name="Iishortcyrillic">
          243 897 hmoveto
          -52 callgsubr
          -416 1024 -80 callgsubr
          endchar
        </CharString>
        <CharString name="Imacron">
          -596 -56 callsubr
          818 1648 -44 callsubr
        </CharString>
        <CharString name="Imacron.1">
          -145 1089 1648 rmoveto
          -672 hlineto
          -29 -162 rlineto
          672 hlineto
          40 -427 rmoveto
          54 306 rlineto
          -882 hlineto
          -54 -306 rlineto
          244 hlineto
          -132 -752 rlineto
          -244 hlineto
          -54 -307 rlineto
          244 hlineto
          395 hlineto
          243 hlineto
          54 307 rlineto
          -243 hlineto
          132 752 rlineto
          endchar
        </CharString>
        <CharString name="Iocyrillic">
          -48 1071 -102 callsubr
          -550 19 callgsubr
          endchar
        </CharString>
        <CharString name="Iogonek">
          -596 401 -364 rmoveto
          33 185 rlineto
          -4 -12 -37 -5 -25 hhcurveto
          -63 -42 30 59 9 hvcurveto
          7 49 34 66 153 62 228 1287 rcurveline
          -396 hlineto
          -240 -1360 rlineto
          72 hlineto
          -1 -14 -52 -31 -60 -54 -13 -86 rlinecurve
          -111 -18 64 -101 182 hhcurveto
          77 75 17 11 25 hvcurveto
          endchar
        </CharString>
        <CharString name="Iogonek.1">
          -145 694 -392 rmoveto
          59 82 13 15 36 hvcurveto
          32 185 rlineto
          -4 -12 -37 -5 -24 hhcurveto
          -68 -37 34 55 8 hvcurveto
          12 71 67 60 116 46 40 229 rcurveline
          -244 hlineto
          132 752 rlineto
          244 121 callsubr
          -882 hlineto
          -54 -306 rlineto
          244 hlineto
          -132 -752 rlineto
          -244 hlineto
          -54 -307 rlineto
          552 hlineto
          -2 -15 -65 -43 -41 -59 -10 -63 rlinecurve
          -129 -22 90 -83 160 hhcurveto
          endchar
        </CharString>
        <CharString name="Iotadieresisgreek">
          -578 -56 callsubr
          138 19 callgsubr
          endchar
        </CharString>
        <CharString name="Iotadieresisgreek.1">
          -145 953 1449 rmoveto
          78 55 59 72 72 -55 59 -78 -78 -55 -59 -72 -72 55 -59 78 hvcurveto
          -409 0 rmoveto
          77 55 59 72 72 -55 59 -77 -78 -55 -59 -72 -72 55 -59 78 hvcurveto
          556 -390 rmoveto
          54 306 rlineto
          -882 hlineto
          -54 -306 rlineto
          244 hlineto
          -132 -752 rlineto
          -244 hlineto
          -54 -307 rlineto
          244 hlineto
          395 hlineto
          243 hlineto
          54 307 rlineto
          -243 hlineto
          132 752 rlineto
          endchar
        </CharString>
        <CharString name="Iotagreek">
          -578 -56 callsubr
          endchar
        </CharString>
        <CharString name="Iotagreek.1">
          -145 1100 1059 rmoveto
          54 306 rlineto
          -882 hlineto
          -54 -306 rlineto
          244 hlineto
          -132 -752 rlineto
          -244 hlineto
          -54 -307 rlineto
          244 hlineto
          395 hlineto
          243 hlineto
          54 307 rlineto
          -243 hlineto
          132 752 rlineto
          endchar
        </CharString>
        <CharString name="Iotatonosgreek">
          -60 891 -48 callsubr
          -346 953 -23 callsubr
        </CharString>
        <CharString name="Iotatonosgreek.1">
          283 300 1364 rmoveto
          -167 -411 rlineto
          250 hlineto
          245 411 rlineto
          900 -305 rmoveto
          54 306 rlineto
          -882 hlineto
          -54 -306 rlineto
          244 hlineto
          -132 -752 rlineto
          -244 hlineto
          -54 -307 rlineto
          244 hlineto
          395 hlineto
          243 hlineto
          54 307 rlineto
          -243 hlineto
          132 752 rlineto
          endchar
        </CharString>
        <CharString name="Itilde">
          -596 -56 callsubr
          585 1450 -89 callsubr
          endchar
        </CharString>
        <CharString name="Itilde.1">
          -145 918 1696 rmoveto
          -49 -1 -18 -46 -42 hhcurveto
          -66 -29 109 -147 hhcurveto
          -146 -67 -124 -112 -1 hvcurveto
          172 hlineto
          46 4 22 31 41 hhcurveto
          73 20 -101 136 hhcurveto
          135 85 109 137 1 hvcurveto
          10 -637 rmoveto
          54 306 rlineto
          -882 hlineto
          -54 -306 rlineto
          244 hlineto
          -132 -752 rlineto
          -244 hlineto
          -54 -307 rlineto
          244 hlineto
          395 hlineto
          243 hlineto
          54 307 rlineto
          -243 hlineto
          132 752 rlineto
          endchar
        </CharString>
        <CharString name="Itildebelow">
          -596 -56 callsubr
          250 -446 -65 callgsubr
          endchar
        </CharString>
        <CharString name="Itildebelow.1">
          -145 238 -407 rmoveto
          51 6 27 34 37 hhcurveto
          70 37 -124 134 hhcurveto
          135 112 114 173 12 hvcurveto
          -183 hlineto
          -52 -5 -23 -33 -40 hhcurveto
          -76 -36 125 -137 hhcurveto
          -154 -88 -133 -155 -10 hvcurveto
          1044 1466 rmoveto
          54 306 rlineto
          -882 hlineto
          -54 -306 rlineto
          244 hlineto
          -132 -752 rlineto
          -244 hlineto
          -54 -307 rlineto
          244 hlineto
          395 hlineto
          243 hlineto
          54 307 rlineto
          -243 hlineto
          132 752 rlineto
          endchar
        </CharString>
        <CharString name="J">
          -39 1252 -60 callsubr
          endchar
        </CharString>
        <CharString name="Jcircumflex">
          -39 1252 -60 callsubr
          -409 1046 -75 callsubr
          endchar
        </CharString>
        <CharString name="Jecyrillic">
          -20 1262 -60 callsubr
          endchar
        </CharString>
        <CharString name="K">
          126 685 -65 callsubr
          endchar
        </CharString>
        <CharString name="Kacute">
          126 685 -65 callsubr
          87 677 -71 callgsubr
        </CharString>
        <CharString name="Kacyrillic">
          114 1522 1364 rmoveto
          -446 hlineto
          -426 -539 rlineto
          -51 hlineto
          96 539 rlineto
          -395 hlineto
          -241 -1364 rlineto
          395 hlineto
          97 546 rlineto
          50 hlineto
          249 -546 rlineto
          425 hlineto
          -310 678 rlineto
          endchar
        </CharString>
        <CharString name="Kappagreek">
          144 685 -65 callsubr
          endchar
        </CharString>
        <CharString name="Kcaron">
          126 685 -65 callsubr
          693 918 -82 callgsubr
          endchar
        </CharString>
        <CharString name="Kcommaaccent">
          126 685 -65 callsubr
          14 -1285 -32 callgsubr
        </CharString>
        <CharString name="Kdotbelow">
          126 685 -65 callsubr
          -206 -1063 -96 callgsubr
        </CharString>
        <CharString name="Kjecyrillic">
          115 1348 1814 rmoveto
          -311 hlineto
          -291 -319 rlineto
          268 hlineto
          508 -131 rmoveto
          -446 hlineto
          -426 -539 rlineto
          -51 hlineto
          96 539 rlineto
          -395 hlineto
          -241 -1364 rlineto
          395 hlineto
          97 546 rlineto
          50 hlineto
          249 -546 rlineto
          425 hlineto
          -310 678 rlineto
          endchar
        </CharString>
        <CharString name="Klinebelow">
          126 685 -65 callsubr
          265 -1180 -79 callgsubr
        </CharString>
        <CharString name="L">
          -178 -29 callgsubr
          endchar
        </CharString>
        <CharString name="Lacute">
          -178 -29 callgsubr
          -617 1495 -71 callgsubr
        </CharString>
        <CharString name="Lambdagreek">
          82 -70 hmoveto
          399 hlineto
          418 1003 rlineto
          21 hlineto
          47 -1003 rlineto
          427 hlineto
          -171 -13 callsubr
          -497 hlineto
          endchar
        </CharString>
        <CharString name="Lcaron">
          -178 862 1435 rmoveto
          -95 -491 rlineto
          246 hlineto
          151 491 rlineto
          -154 -1111 rmoveto
          -509 hlineto
          184 1040 -91 callsubr
          904 hlineto
          endchar
        </CharString>
        <CharString name="Lcircumflexbelow">
          -178 -29 callgsubr
          -930 -424 -58 callgsubr
          endchar
        </CharString>
        <CharString name="Lcommaaccent">
          -178 -29 callgsubr
          -443 -467 -32 callgsubr
        </CharString>
        <CharString name="Ldotbelow">
          -178 -29 callgsubr
          -663 45 callgsubr
          endchar
        </CharString>
        <CharString name="Ldotbelowmacron">
          -178 -29 callgsubr
          -663 45 callgsubr
          576 1893 -44 callsubr
        </CharString>
        <CharString name="Ljecyrillic">
          779 639 732 rmoveto
          63 318 134 callgsubr
          -185 -1050 rlineto
          604 hlineto
          333 190 183 235 49 hvcurveto
          9 41 4 43 43 vvcurveto
          265 -175 154 -289 vhcurveto
          -161 hlineto
          70 400 rlineto
          -1025 hlineto
          -107 -565 rlineto
          -366 -70 -54 -112 -110 hhcurveto
          -16 -20 4 6 -13 hvcurveto
          -58 -331 rlineto
          -12 23 45 -10 62 hhcurveto
          348 110 291 463 92 hvcurveto
          784 -50 rmoveto
          74 95 -37 -118 -23 -3 -24 -6 -20 hvcurveto
          -93 -23 -82 -59 -107 hhcurveto
          -125 hlineto
          66 374 rlineto
          endchar
        </CharString>
        <CharString name="Llinebelow">
          -178 -29 callgsubr
          -192 -362 -79 callgsubr
        </CharString>
        <CharString name="Lslash">
          -114 1008 hmoveto
          58 325 rlineto
          -515 hlineto
          67 375 270 136 54 313 -269 -138 62 354 rlineto
          -395 hlineto
          -100 -573 -121 -60 -54 -310 120 60 -86 -482 rlineto
          endchar
        </CharString>
        <CharString name="M">
          440 404 -68 callsubr
          endchar
        </CharString>
        <CharString name="Macute">
          440 404 -68 callsubr
          793 1495 -71 callgsubr
        </CharString>
        <CharString name="Mdotaccent">
          440 404 -68 callsubr
          835 1647 -77 callsubr
        </CharString>
        <CharString name="Mdotbelow">
          440 404 -68 callsubr
          499 45 callgsubr
          endchar
        </CharString>
        <CharString name="Mugreek">
          478 404 -68 callsubr
          endchar
        </CharString>
        <CharString name="N">
          176 1216 -84 callgsubr
          endchar
        </CharString>
        <CharString name="Nacute">
          176 1216 -84 callgsubr
          -181 1495 -71 callgsubr
        </CharString>
        <CharString name="Ncaron">
          176 1216 -84 callgsubr
          425 1736 -82 callgsubr
          endchar
        </CharString>
        <CharString name="Ncircumflexbelow">
          176 1216 -84 callgsubr
          -742 -424 -58 callgsubr
          endchar
        </CharString>
        <CharString name="Ncommaaccent">
          176 1216 -84 callgsubr
          -255 -467 -32 callgsubr
        </CharString>
        <CharString name="Ndotaccent">
          176 1216 -84 callgsubr
          -139 1647 -77 callsubr
        </CharString>
        <CharString name="Ndotbelow">
          176 1216 -84 callgsubr
          -475 45 callgsubr
          endchar
        </CharString>
        <CharString name="Ngrave">
          176 1216 -84 callgsubr
          128 1495 -27 callgsubr
        </CharString>
        <CharString name="Njecyrillic">
          869 886 hmoveto
          599 hlineto
          311 192 171 194 64 hvcurveto
          17 47 9 49 45 vvcurveto
          224 -157 159 -304 vhcurveto
          -180 hlineto
          84 475 rlineto
          -394 hlineto
          -85 -475 rlineto
          -422 hlineto
          85 475 rlineto
          -396 29 callsubr
          396 hlineto
          101 574 rlineto
          421 hlineto
          340 -280 rmoveto
          54 308 rlineto
          123 hlineto
          106 64 -44 -80 -12 -1 -12 -2 -10 hvcurveto
          -91 -15 -82 -59 -113 hhcurveto
          endchar
        </CharString>
        <CharString name="Nlinebelow">
          176 1216 -84 callgsubr
          -4 -362 -79 callgsubr
        </CharString>
        <CharString name="Ntilde">
          176 1216 -84 callgsubr
          116 1450 -89 callsubr
          endchar
        </CharString>
        <CharString name="Nugreek">
          194 1216 -84 callgsubr
          endchar
        </CharString>
        <CharString name="NumberSignCyrillic">
          1061 422 hmoveto
          151 712 rlineto
          15 hlineto
          338 -712 rlineto
          297 hlineto
          290 1365 rlineto
          -363 hlineto
          -149 -701 rlineto
          -15 hlineto
          -338 701 rlineto
          -300 hlineto
          -290 -1365 rlineto
          2039 321 rmoveto
          54 255 rlineto
          -628 hlineto
          -54 -255 rlineto
          576 725 rmoveto
          -92 -49 -60 -75 -61 -38 45 76 90 50 60 73 64 36 -44 -75 vhcurveto
          258 9 rmoveto
          203 -130 126 -210 -234 -164 -157 -225 -203 133 -125 215 228 162 159 222 vhcurveto
          endchar
        </CharString>
        <CharString name="O">
          -105 callsubr
          endchar
        </CharString>
        <CharString name="OE">
          711 108 658 rmoveto
          -9 -48 -6 -68 -60 vvcurveto
          -326 198 -179 277 157 119 73 110 76 vhcurveto
          20 hlineto
          -31 -160 rlineto
          875 121 callsubr
          -566 hlineto
          42 238 rlineto
          529 hlineto
          49 277 rlineto
          -529 hlineto
          42 238 rlineto
          565 121 callsubr
          -884 hlineto
          -26 -153 rlineto
          -20 hlineto
          89 -57 -112 86 -201 hhcurveto
          -302 -217 -191 -352 -64 hvcurveto
          389 -71 rmoveto
          206 37 89 89 121 hhcurveto
          130 67 -103 -132 -30 -4 -47 -6 -35 hvcurveto
          -23 -131 rlineto
          -207 -37 -88 -91 -124 hhcurveto
          -129 -67 100 134 34 4 47 6 36 hvcurveto
          endchar
        </CharString>
        <CharString name="Oacute">
          -105 callsubr
          558 651 -71 callgsubr
        </CharString>
        <CharString name="Obreve">
          -105 callsubr
          431 945 -69 callgsubr
          endchar
        </CharString>
        <CharString name="Ocaron">
          -105 callsubr
          1164 892 -82 callgsubr
          endchar
        </CharString>
        <CharString name="Ocircumflex">
          -105 callsubr
          337 635 -75 callsubr
          endchar
        </CharString>
        <CharString name="Ocircumflexacute">
          -105 callsubr
          327 650 -46 callgsubr
          404 -82 rmoveto
          226 hlineto
          296 253 rlineto
          -268 hlineto
          endchar
        </CharString>
        <CharString name="Ocircumflexdotbelow">
          -105 callsubr
          337 635 -75 callsubr
          -350 -1975 -96 callgsubr
        </CharString>
        <CharString name="Ocircumflexgrave">
          -105 callsubr
          327 650 -46 callgsubr
          700 -82 rmoveto
          -178 253 rlineto
          -241 hlineto
          193 -253 rlineto
          endchar
        </CharString>
        <CharString name="Ocircumflexhookabove">
          -105 callsubr
          327 650 -46 callgsubr
          313 83 rmoveto
          3 14 12 2 28 hhcurveto
          48 32 -26 -39 -25 -13 -18 -27 -17 hvcurveto
          82 -87 rlineto
          55 30 62 58 80 vvcurveto
          119 -90 37 -110 -40 -38 -6 -5 -13 vhcurveto
          endchar
        </CharString>
        <CharString name="Ocircumflextilde">
          -105 callsubr
          379 650 -36 callsubr
        </CharString>
        <CharString name="Ocyrillic">
          158 540 779 -107 callgsubr
          endchar
        </CharString>
        <CharString name="Odblgrave">
          -105 callsubr
          651 651 -34 callsubr
          endchar
        </CharString>
        <CharString name="Odieresis">
          -105 callsubr
          408 736 -100 callgsubr
        </CharString>
        <CharString name="Odieresismacron">
          -105 callsubr
          1128 1087 -24 callsubr
        </CharString>
        <CharString name="Odotaccent">
          -105 callsubr
          600 803 -77 callsubr
        </CharString>
        <CharString name="Odotaccentmacron">
          -105 callsubr
          586 717 30 callgsubr
        </CharString>
        <CharString name="Odotbelow">
          -105 callsubr
          266 -1089 -96 callgsubr
        </CharString>
        <CharString name="Ograve">
          -105 callsubr
          867 651 -27 callgsubr
        </CharString>
        <CharString name="Ohookabove">
          -105 callsubr
          609 850 -63 callgsubr
          endchar
        </CharString>
        <CharString name="Ohorn">
          -93 callgsubr
          endchar
        </CharString>
        <CharString name="Ohornacute">
          -93 callgsubr
          -625 975 -71 callgsubr
        </CharString>
        <CharString name="Ohorndotbelow">
          -93 callgsubr
          -917 -765 -96 callgsubr
        </CharString>
        <CharString name="Ohorngrave">
          -93 callgsubr
          -316 975 -27 callgsubr
        </CharString>
        <CharString name="Ohornhookabove">
          -93 callgsubr
          -574 1174 -63 callgsubr
          endchar
        </CharString>
        <CharString name="Ohorntilde">
          -93 callgsubr
          -328 930 -89 callsubr
          endchar
        </CharString>
        <CharString name="Ohungarumlaut">
          -105 callsubr
          361 651 15 callgsubr
        </CharString>
        <CharString name="Oinvertedbreve">
          -105 callsubr
          1080 619 -49 callsubr
          endchar
        </CharString>
        <CharString name="Omacron">
          -105 callsubr
          1088 804 -44 callsubr
        </CharString>
        <CharString name="Omacronacute">
          -105 callsubr
          611 910 44 callgsubr
        </CharString>
        <CharString name="Omacrongrave">
          -105 callsubr
          1088 804 74 callgsubr
        </CharString>
        <CharString name="Omegagreek">
          224 724 -11 callgsubr
          endchar
        </CharString>
        <CharString name="Omegatonosgreek">
          566 1065 -11 callgsubr
          -984 566 -23 callsubr
        </CharString>
        <CharString name="Omicrongreek">
          -105 callsubr
          endchar
        </CharString>
        <CharString name="Omicrontonosgreek">
          523 915 779 -107 callgsubr
          -377 109 -23 callsubr
        </CharString>
        <CharString name="Oogonek">
          -25 callsubr
          endchar
        </CharString>
        <CharString name="Oogonekmacron">
          -25 callsubr
          724 999 -44 callsubr
        </CharString>
        <CharString name="Oslash">
          -28 callsubr
          endchar
        </CharString>
        <CharString name="Oslashacute">
          -28 callsubr
          -237 497 -71 callgsubr
        </CharString>
        <CharString name="Otilde">
          -105 callsubr
          855 606 -89 callsubr
          endchar
        </CharString>
        <CharString name="Otildeacute">
          -105 callsubr
          626 910 rmoveto
          211 hlineto
          268 190 rlineto
          -263 hlineto
          9 -494 -31 callsubr
        </CharString>
        <CharString name="Otildedieresis">
          -105 callsubr
          846 548 -89 callsubr
          -400 422 -100 callgsubr
        </CharString>
        <CharString name="Otildemacron">
          -105 callsubr
          1119 1087 rmoveto
          -670 hlineto
          -30 -162 rlineto
          671 hlineto
          -239 -319 -31 callsubr
        </CharString>
        <CharString name="P">
          19 444 hmoveto
          -73 callsubr
          endchar
        </CharString>
        <CharString name="Pacute">
          19 444 hmoveto
          -73 callsubr
          -20 412 -71 callgsubr
        </CharString>
        <CharString name="Pdotaccent">
          19 444 hmoveto
          -73 callsubr
          22 564 -77 callsubr
        </CharString>
        <CharString name="Pecyrillic">
          233 1264 62 callsubr
          -1204 82 callgsubr
          414 hlineto
          -184 -1048 rlineto
          endchar
        </CharString>
        <CharString name="Phigreek">
          476 1710 777 rmoveto
          278 -171 218 -345 55 vhcurveto
          25 140 rlineto
          -351 hlineto
          -25 -139 rlineto
          -426 -232 -204 -322 -60 hvcurveto
          -24 -133 -5 -48 -45 vvcurveto
          -274 165 -223 352 -56 vhcurveto
          -23 -130 rlineto
          351 hlineto
          23 129 rlineto
          404 253 186 360 63 hvcurveto
          22 122 4 54 32 vvcurveto
          -908 268 rmoveto
          -130 -737 rlineto
          -117 18 -70 108 147 vvcurveto
          18 2 29 17 107 vhcurveto
          184 31 109 126 158 hhcurveto
          202 -738 rmoveto
          130 737 rlineto
          113 -18 74 -99 -157 vvcurveto
          -22 -2 -27 -11 -74 vhcurveto
          -34 -219 -112 -118 -158 -3 rrcurveto
          endchar
        </CharString>
        <CharString name="Pigreek">
          204 445 hmoveto
          184 1048 rlineto
          405 hlineto
          -184 -1048 65 callsubr
          -1195 -94 callsubr
          endchar
        </CharString>
        <CharString name="Psigreek">
          384 553 hmoveto
          367 hlineto
          47 261 rlineto
          10 12 -1 11 hhcurveto
          334 1 181 154 58 327 110 622 rcurveline
          -368 hlineto
          -107 -607 -24 -138 -53 -57 -111 -1 rlinecurve
          141 803 119 callgsubr
          -141 -802 rlineto
          -79 13 -44 42 92 vvcurveto
          19 2 23 5 25 vhcurveto
          102 588 rlineto
          -366 hlineto
          -97 -547 rlineto
          -7 -43 -4 -40 -37 vvcurveto
          -251 158 -147 276 -38 vhcurveto
          endchar
        </CharString>
        <CharString name="Q">
          151 111 676 rmoveto
          -10 -57 -4 -47 -48 vvcurveto
          -355 245 -192 336 71 60 8 17 59 vhcurveto
          56 -93 rlineto
          364 hlineto
          -155 257 92 93 63 127 26 153 rlinecurve
          28 150 rlineto
          9 56 5 47 46 vvcurveto
          355 -246 194 -335 -353 -225 -218 -343 -59 vhcurveto
          742 -361 rmoveto
          -288 hlineto
          118 -197 rlineto
          -1 -8 -6 0 -9 hhcurveto
          -116 -85 84 159 23 1 54 8 46 hvcurveto
          28 150 rlineto
          195 35 81 104 131 hhcurveto
          115 82 -79 -145 -23 -2 -55 -8 -45 hvcurveto
          -28 -153 -8 -48 -15 -53 -15 -35 rlinecurve
          endchar
        </CharString>
        <CharString name="R">
          -94 callgsubr
          endchar
        </CharString>
        <CharString name="Racute">
          -94 callgsubr
          -19 423 -71 callgsubr
        </CharString>
        <CharString name="Rcaron">
          -94 callgsubr
          587 664 -82 callgsubr
          endchar
        </CharString>
        <CharString name="Rcommaaccent">
          -94 callgsubr
          -92 -1539 -32 callgsubr
        </CharString>
        <CharString name="Rdblgrave">
          -94 callgsubr
          74 423 -34 callsubr
          endchar
        </CharString>
        <CharString name="Rdotaccent">
          -94 callgsubr
          23 575 -77 callsubr
        </CharString>
        <CharString name="Rdotbelow">
          -94 callgsubr
          -312 -1317 -96 callgsubr
        </CharString>
        <CharString name="Rdotbelowmacron">
          -94 callgsubr
          -312 -1317 -98 callgsubr
          823 1893 -44 callsubr
        </CharString>
        <CharString name="Rhogreek">
          46 444 hmoveto
          -73 callsubr
          endchar
        </CharString>
        <CharString name="Rinvertedbreve">
          -94 callgsubr
          503 391 -49 callsubr
          endchar
        </CharString>
        <CharString name="Rlinebelow">
          -94 callgsubr
          159 -1434 -79 callgsubr
        </CharString>
        <CharString name="S">
          33 54 429 rmoveto
          -101 callgsubr
          endchar
        </CharString>
        <CharString name="Sacute">
          33 54 429 rmoveto
          -101 callgsubr
          239 1066 -71 callgsubr
        </CharString>
        <CharString name="Sacutedotaccent">
          33 54 429 rmoveto
          -101 callgsubr
          359 1065 69 callgsubr
        </CharString>
        <CharString name="Scaron">
          33 54 429 rmoveto
          -101 callgsubr
          845 1307 -82 callgsubr
          endchar
        </CharString>
        <CharString name="Scarondotaccent">
          33 54 429 rmoveto
          -101 callgsubr
          836 1263 50 callgsubr
        </CharString>
        <CharString name="Scedilla">
          33 497 -478 rmoveto
          81 callsubr
          2 124 callsubr
          -57 55 -88 1 vhcurveto
          16 77 rlineto
          0 vlineto
          300 18 238 162 283 vvcurveto
          230 -158 87 -152 44 vhcurveto
          -154 45 rlineto
          -104 30 -62 39 63 vvcurveto
          66 65 50 98 89 92 -42 -93 -7 0 -6 -1 -3 vhcurveto
          353 hlineto
          1 9 2 12 19 vvcurveto
          217 -199 185 -335 -316 -252 -162 -299 -222 142 -100 171 -51 vhcurveto
          146 -47 rlineto
          98 -30 74 -24 -72 vvcurveto
          -87 -106 -28 -75 -106 -99 53 93 9 1 4 1 5 vhcurveto
          -365 hlineto
          -3 -13 -1 -12 -18 vvcurveto
          -245 197 -119 221 -34 vhcurveto
          -30 -153 -11 -71 rlineto
          57 94 callsubr
          -5 -44 33 callsubr
          62 -10 66 hhcurveto
          endchar
        </CharString>
        <CharString name="Scircumflex">
          33 54 429 rmoveto
          -101 callgsubr
          18 1050 -75 callsubr
          endchar
        </CharString>
        <CharString name="Scommaaccent">
          33 54 429 rmoveto
          -101 callgsubr
          166 -896 -32 callgsubr
        </CharString>
        <CharString name="Sdotaccent">
          33 54 429 rmoveto
          -101 callgsubr
          281 1218 -77 callsubr
        </CharString>
        <CharString name="Sdotbelow">
          33 54 429 rmoveto
          -101 callgsubr
          -54 -674 -96 callgsubr
        </CharString>
        <CharString name="Sdotbelowdotaccent">
          33 54 429 rmoveto
          -101 callgsubr
          -54 -674 -98 callgsubr
          335 1892 -77 callsubr
        </CharString>
        <CharString name="Shacyrillic">
          810 59 hmoveto
          1782 37 callgsubr
          -395 hlineto
          -186 84 callgsubr
          -185 84 callgsubr
          endchar
        </CharString>
        <CharString name="Shchacyrillic">
          869 1953 -286 107 callsubr
          -185 -1049 rlineto
          -298 hlineto
          185 1049 rlineto
          -396 hlineto
          -185 84 callgsubr
          -241 -1364 rlineto
          1595 76 callgsubr
          endchar
        </CharString>
        <CharString name="Sigmagreek">
          -18 1078 hmoveto
          54 309 rlineto
          -554 hlineto
          3 19 310 332 7 37 -194 340 3 18 rlineto
          542 hlineto
          55 309 rlineto
          -1043 hlineto
          -44 -247 258 -429 -418 -465 -39 -223 rlineto
          endchar
        </CharString>
        <CharString name="Softsigncyrillic">
          41 685 -50 callgsubr
          endchar
        </CharString>
        <CharString name="T">
          -136 674 hmoveto
          -39 callgsubr
          endchar
        </CharString>
        <CharString name="Taugreek">
          -91 674 hmoveto
          -39 callgsubr
          endchar
        </CharString>
        <CharString name="Tbar">
          -136 993 536 rmoveto
          39 219 rlineto
          -224 hlineto
          51 291 rlineto
          341 hlineto
          56 318 rlineto
          -1077 hlineto
          -57 -318 rlineto
          343 hlineto
          -52 -291 rlineto
          -225 hlineto
          -39 -219 rlineto
          225 hlineto
          -95 -536 59 callsubr
          95 536 rlineto
          endchar
        </CharString>
        <CharString name="Tcaron">
          -136 674 hmoveto
          -39 callgsubr
          902 1736 -82 callgsubr
          endchar
        </CharString>
        <CharString name="Tcedilla">
          -136 385 hmoveto
          -32 -165 -12 106 callsubr
          22 -15 -25 -4 0 -4 -1 -4 hvcurveto
          54 callgsubr
          rlineto
          97 hlineto
          185 1046 rlineto
          332 hlineto
          56 318 rlineto
          -1077 hlineto
          -57 -318 rlineto
          351 hlineto
          -185 -1046 rlineto
          endchar
        </CharString>
        <CharString name="Tcircumflexbelow">
          -136 674 hmoveto
          -39 callgsubr
          -265 -424 -58 callgsubr
          endchar
        </CharString>
        <CharString name="Tcommaaccent">
          -136 674 hmoveto
          -39 callgsubr
          222 -467 -32 callgsubr
        </CharString>
        <CharString name="Tdotaccent">
          -136 674 hmoveto
          -39 callgsubr
          338 1647 -77 callsubr
        </CharString>
        <CharString name="Tdotbelow">
          -136 674 hmoveto
          -39 callgsubr
          2 45 callgsubr
          endchar
        </CharString>
        <CharString name="Tecyrillic">
          -118 683 hmoveto
          -39 callgsubr
          endchar
        </CharString>
        <CharString name="Thetagreek">
          230 695 -24 rmoveto
          462 201 222 348 64 hvcurveto
          26 141 15 77 4 71 -4 63 rlinecurve
          332 -23 -260 158 -330 hhcurveto
          -484 -174 -265 -319 -57 hvcurveto
          -25 -141 rlineto
          -10 -52 -4 -51 -48 vvcurveto
          -324 2 223 -212 374 hhcurveto
          35 322 rmoveto
          -144 -91 65 165 33 4 33 6 38 hvcurveto
          25 142 rlineto
          232 42 82 69 178 hhcurveto
          153 74 -75 -135 6 hvcurveto
          2 -37 -3 -47 -9 -48 -20 -115 rcurveline
          -240 -41 -70 -80 -194 hhcurveto
          193 237 rmoveto
          53 296 rlineto
          -339 hlineto
          -52 -296 rlineto
          endchar
        </CharString>
        <CharString name="Thorn">
          37 69 callsubr
          -5 callgsubr
          394 hlineto
          35 200 rlineto
          209 hlineto
          333 189 187 237 49 hvcurveto
          9 41 4 42 44 vvcurveto
          270 -174 154 -290 vhcurveto
          -157 hlineto
          33 189 rlineto
          18 -484 rmoveto
          76 94 -38 -128 -22 -4 -24 -6 -20 hvcurveto
          -94 -25 -76 -64 -110 hhcurveto
          -122 hlineto
          69 390 rlineto
          endchar
        </CharString>
        <CharString name="Tlinebelow">
          -136 674 hmoveto
          -39 callgsubr
          473 -362 -79 callgsubr
        </CharString>
        <CharString name="Tsecyrillic">
          292 1376 -286 rmoveto
          119 callsubr
          -161 hlineto
          184 1049 rlineto
          -394 hlineto
          -184 -1048 rlineto
          -416 hlineto
          185 1048 rlineto
          -396 -94 callsubr
          1017 76 callgsubr
          endchar
        </CharString>
        <CharString name="Tshecyrillic">
          404 846 795 rmoveto
          -17 hlineto
          43 252 83 callsubr
          87 494 rlineto
          30 43 74 24 66 hhcurveto
          132 48 -72 -138 -24 hvcurveto
          -60 -338 59 callsubr
          62 345 rlineto
          319 56 -137 194 -317 hhcurveto
          -94 -113 -30 -33 -60 hvcurveto
          endchar
        </CharString>
        <CharString name="U">
          -104 callsubr
          endchar
        </CharString>
        <CharString name="Uacute">
          -104 callsubr
          184 940 -71 callgsubr
        </CharString>
        <CharString name="Ubreve">
          -104 callsubr
          57 1234 -69 callgsubr
          endchar
        </CharString>
        <CharString name="Ucaron">
          -104 callsubr
          790 1181 -82 callgsubr
          endchar
        </CharString>
        <CharString name="Ucircumflex">
          -104 callsubr
          -37 924 -75 callsubr
          endchar
        </CharString>
        <CharString name="Ucircumflexbelow">
          -104 callsubr
          -377 -979 -58 callgsubr
          endchar
        </CharString>
        <CharString name="Ucyrillic">
          24 1045 1364 rmoveto
          -310 -593 rlineto
          -18 hlineto
          -143 593 rlineto
          -432 hlineto
          329 -997 rlineto
          -58 -60 -46 -19 -61 hhcurveto
          -65 -40 12 -2 hhcurveto
          -52 -302 rlineto
          1 50 -22 100 hhcurveto
          306 132 163 275 161 hvcurveto
          559 948 rlineto
          endchar
        </CharString>
        <CharString name="Udblgrave">
          -104 callsubr
          277 940 -34 callsubr
          endchar
        </CharString>
        <CharString name="Udieresis">
          -104 callsubr
          34 1025 -100 callgsubr
        </CharString>
        <CharString name="Udieresisacute">
          -104 callsubr
          247 1200 rmoveto
          232 hlineto
          235 190 89 callsubr
          -397 18 callsubr
        </CharString>
        <CharString name="Udieresisbelow">
          -104 callsubr
          -177 -958 -101 callsubr
        </CharString>
        <CharString name="Udieresiscaron">
          -104 callsubr
          805 1390 26 callsubr
        </CharString>
        <CharString name="Udieresisgrave">
          -104 callsubr
          80 1390 rmoveto
          228 -190 rlineto
          229 hlineto
          -176 190 rlineto
          -327 18 callsubr
        </CharString>
        <CharString name="Udieresismacron">
          -104 callsubr
          754 1376 -24 callsubr
        </CharString>
        <CharString name="Udotbelow">
          -104 callsubr
          -110 -800 -96 callgsubr
        </CharString>
        <CharString name="Ugrave">
          -104 callsubr
          493 940 -27 callgsubr
        </CharString>
        <CharString name="Uhookabove">
          -104 callsubr
          235 1139 -63 callgsubr
          endchar
        </CharString>
        <CharString name="Uhorn">
          -84 callsubr
          endchar
        </CharString>
        <CharString name="Uhornacute">
          -84 callsubr
          27 1515 -71 callgsubr
        </CharString>
        <CharString name="Uhorndotbelow">
          -84 callsubr
          -267 -225 -96 callgsubr
        </CharString>
        <CharString name="Uhorngrave">
          -84 callsubr
          336 1515 -27 callgsubr
        </CharString>
        <CharString name="Uhornhookabove">
          -84 callsubr
          78 1714 -63 callgsubr
          endchar
        </CharString>
        <CharString name="Uhorntilde">
          -84 callsubr
          324 1470 -89 callsubr
          endchar
        </CharString>
        <CharString name="Uhungarumlaut">
          -104 callsubr
          -13 940 15 callgsubr
        </CharString>
        <CharString name="Uinvertedbreve">
          -104 callsubr
          706 908 -49 callsubr
          endchar
        </CharString>
        <CharString name="Umacron">
          -104 callsubr
          714 1093 -44 callsubr
        </CharString>
        <CharString name="Umacrondieresis">
          -104 callsubr
          713 1057 48 callsubr
          -68 231 rmoveto
          77 55 59 72 72 -55 59 -77 -78 -55 -59 -72 -33 callsubr
          hvcurveto
          -410 hmoveto
          78 55 59 72 72 -55 59 -78 -78 -55 -59 -72 -33 callsubr
          hvcurveto
          endchar
        </CharString>
        <CharString name="Uogonek">
          163 1034 64 rmoveto
          116 94 102 90 29 162 166 954 rcurveline
          -397 hlineto
          -151 -852 rlineto
          -144 -25 -72 -57 -105 hhcurveto
          -115 -74 68 109 19 3 26 4 22 hvcurveto
          141 809 rlineto
          -396 hlineto
          -144 -828 rlineto
          -6 -33 -3 -47 -29 vvcurveto
          -282 232 -160 250 63 63 8 18 52 vhcurveto
          -3 -21 -59 -41 -40 -52 -11 -68 rlinecurve
          -19 -115 70 -104 182 -3 78 -2 73 18 27 6 34 198 rcurveline
          -5 -17 -36 -3 -22 hhcurveto
          -70 -45 28 67 11 hvcurveto
          11 61 47 43 56 46 rrcurveto
          endchar
        </CharString>
        <CharString name="Upsilondieresisgreek">
          1 823 440 -82 callsubr
          -258 19 callgsubr
          endchar
        </CharString>
        <CharString name="Upsilongreek">
          1 823 440 -82 callsubr
          endchar
        </CharString>
        <CharString name="Upsilontonosgreek">
          591 1412 440 -82 callsubr
          -1185 953 -23 callsubr
        </CharString>
        <CharString name="Uring">
          -104 callsubr
          390 1043 7 callsubr
        </CharString>
        <CharString name="Ushortcyrillic">
          24 1027 1778 rmoveto
          -87 -15 -54 -54 -105 hhcurveto
          -97 -44 54 87 16 hvcurveto
          -203 hlineto
          -203 -36 133 -120 199 hhcurveto
          219 160 119 204 30 hvcurveto
          -185 -414 rmoveto
          -310 -593 rlineto
          -18 hlineto
          -143 593 rlineto
          -432 hlineto
          329 -997 rlineto
          -58 -60 -46 -19 -61 hhcurveto
          -65 -40 12 -2 hhcurveto
          -52 -302 rlineto
          1 50 -22 100 hhcurveto
          306 132 163 275 161 hvcurveto
          559 948 rlineto
          endchar
        </CharString>
        <CharString name="Utilde">
          -104 callsubr
          481 895 -89 callsubr
          endchar
        </CharString>
        <CharString name="Utildeacute">
          -104 callsubr
          252 1199 rmoveto
          211 hlineto
          268 190 rlineto
          -263 hlineto
          9 -494 -31 callsubr
        </CharString>
        <CharString name="Utildebelow">
          -104 callsubr
          146 -1001 -65 callgsubr
          endchar
        </CharString>
        <CharString name="V">
          33 callgsubr
          endchar
        </CharString>
        <CharString name="Vdotbelow">
          33 callgsubr
          46 45 callgsubr
          endchar
        </CharString>
        <CharString name="Vecyrillic">
          109 60 -75 callgsubr
          endchar
        </CharString>
        <CharString name="Vtilde">
          33 callgsubr
          636 1450 -89 callsubr
          endchar
        </CharString>
        <CharString name="W">
          619 649 -70 callgsubr
          endchar
        </CharString>
        <CharString name="Wacute">
          619 649 -70 callgsubr
          675 1495 -71 callgsubr
        </CharString>
        <CharString name="Wcircumflex">
          619 649 -70 callgsubr
          454 78 callsubr
          endchar
        </CharString>
        <CharString name="Wdieresis">
          619 649 -70 callgsubr
          525 19 callgsubr
          endchar
        </CharString>
        <CharString name="Wdotaccent">
          619 649 -70 callgsubr
          717 1647 -77 callsubr
        </CharString>
        <CharString name="Wdotbelow">
          619 649 -70 callgsubr
          380 45 callgsubr
          endchar
        </CharString>
        <CharString name="Wgrave">
          619 649 -70 callgsubr
          984 1495 -27 callgsubr
        </CharString>
        <CharString name="X">
          72 1043 1364 -55 callsubr
          endchar
        </CharString>
        <CharString name="Xacyrillic">
          92 1053 1364 -55 callsubr
          endchar
        </CharString>
        <CharString name="Xdieresis">
          72 1043 1364 -55 callsubr
          -963 216 -100 callgsubr
        </CharString>
        <CharString name="Xdotaccent">
          72 1043 1364 -55 callsubr
          -771 283 -77 callsubr
        </CharString>
        <CharString name="Xigreek">
          -33 202 1049 rmoveto
          1023 hlineto
          56 315 rlineto
          -1023 hlineto
          -59 -825 rmoveto
          849 hlineto
          51 286 rlineto
          -849 hlineto
          -234 -825 rmoveto
          1024 hlineto
          56 316 rlineto
          -1023 hlineto
          endchar
        </CharString>
        <CharString name="Y">
          1 823 440 -82 callsubr
          endchar
        </CharString>
        <CharString name="Yacute">
          1 823 440 -82 callsubr
          -108 1495 -71 callgsubr
        </CharString>
        <CharString name="Ycircumflex">
          1 823 440 -82 callsubr
          -329 78 callsubr
          endchar
        </CharString>
        <CharString name="Ydieresis">
          1 823 440 -82 callsubr
          -258 19 callgsubr
          endchar
        </CharString>
        <CharString name="Ydotaccent">
          1 823 440 -82 callsubr
          -66 1647 -77 callsubr
        </CharString>
        <CharString name="Ydotbelow">
          1 823 440 -82 callsubr
          -403 45 callgsubr
          endchar
        </CharString>
        <CharString name="Yericyrillic">
          -30 callgsubr
          endchar
        </CharString>
        <CharString name="Ygrave">
          1 823 440 -82 callsubr
          201 1495 -27 callgsubr
        </CharString>
        <CharString name="Yhookabove">
          1 823 440 -82 callsubr
          -57 1694 -63 callgsubr
          endchar
        </CharString>
        <CharString name="Yicyrillic">
          -577 454 -48 callsubr
          138 19 callgsubr
          endchar
        </CharString>
        <CharString name="Yicyrillic.1">
          -125 963 1449 rmoveto
          78 55 59 72 72 -55 59 -78 -78 -55 -59 -72 -72 55 -59 78 hvcurveto
          -409 0 rmoveto
          77 55 59 72 72 -55 59 -77 -78 -55 -59 -72 -72 55 -59 78 hvcurveto
          556 -390 rmoveto
          54 306 rlineto
          -882 hlineto
          -54 -306 rlineto
          244 hlineto
          -132 -752 rlineto
          -244 hlineto
          -54 -307 rlineto
          244 hlineto
          395 hlineto
          243 hlineto
          54 307 rlineto
          -243 hlineto
          132 752 rlineto
          endchar
        </CharString>
        <CharString name="Ymacron">
          1 823 440 -82 callsubr
          422 1648 -44 callsubr
        </CharString>
        <CharString name="Ytilde">
          1 823 440 -82 callsubr
          189 1450 -89 callsubr
          endchar
        </CharString>
        <CharString name="Z">
          -18 19 hmoveto
          -56 callgsubr
          endchar
        </CharString>
        <CharString name="Zacute">
          -18 19 hmoveto
          -56 callgsubr
          580 1245 -71 callgsubr
        </CharString>
        <CharString name="Zcaron">
          -18 19 hmoveto
          -56 callgsubr
          1186 1486 -82 callgsubr
          endchar
        </CharString>
        <CharString name="Zcircumflex">
          -18 19 hmoveto
          -56 callgsubr
          359 1229 -75 callsubr
          endchar
        </CharString>
        <CharString name="Zdotaccent">
          -18 19 hmoveto
          -56 callgsubr
          622 1397 -77 callsubr
        </CharString>
        <CharString name="Zdotbelow">
          -18 19 hmoveto
          -56 callgsubr
          288 -495 -96 callgsubr
        </CharString>
        <CharString name="Zecyrillic">
          10 467 556 -76 callsubr
          endchar
        </CharString>
        <CharString name="Zetagreek">
          4 19 hmoveto
          -56 callgsubr
          endchar
        </CharString>
        <CharString name="Zhecyrillic">
          777 2185 1364 rmoveto
          -437 hlineto
          -432 -539 rlineto
          -54 hlineto
          95 539 rlineto
          -377 hlineto
          -96 -539 rlineto
          -54 hlineto
          -250 539 rlineto
          -414 hlineto
          315 -628 -560 -736 rlineto
          451 hlineto
          409 546 rlineto
          55 hlineto
          -97 -546 rlineto
          377 hlineto
          97 546 rlineto
          55 hlineto
          226 -546 rlineto
          422 hlineto
          -283 678 rlineto
          endchar
        </CharString>
        <CharString name="Zlinebelow">
          -18 19 hmoveto
          -56 callgsubr
          759 -612 -79 callgsubr
        </CharString>
        <CharString name="a">
          -102 352 -107 callsubr
          endchar
        </CharString>
        <CharString name="a.1">
          -105 callgsubr
          endchar
        </CharString>
        <CharString name="aacute">
          -102 352 -107 callsubr
          150 900 -73 callgsubr
        </CharString>
        <CharString name="aacute.1">
          -105 callgsubr
          25 156 -73 callgsubr
        </CharString>
        <CharString name="abreve">
          -102 352 -107 callsubr
          16 1218 -77 callgsubr
          endchar
        </CharString>
        <CharString name="abreve.1">
          -105 callgsubr
          -79 474 -77 callgsubr
          endchar
        </CharString>
        <CharString name="abreveacute">
          -102 352 -107 callsubr
          -3 1131 -81 callgsubr
          219 102 rmoveto
          224 hlineto
          320 308 92 callgsubr
          endchar
        </CharString>
        <CharString name="abreveacute.1">
          -105 callgsubr
          -98 382 -81 callgsubr
          219 102 rmoveto
          224 hlineto
          320 308 92 callgsubr
          endchar
        </CharString>
        <CharString name="abrevedotbelow">
          -102 352 -107 callsubr
          16 1219 -77 callgsubr
          -342 -1805 -96 callgsubr
        </CharString>
        <CharString name="abrevedotbelow.1">
          -105 callgsubr
          -79 474 -77 callgsubr
          -367 -1804 -96 callgsubr
        </CharString>
        <CharString name="abrevegrave">
          -102 352 -107 callsubr
          -3 1126 -81 callgsubr
          463 102 rmoveto
          -171 308 rlineto
          -288 hlineto
          240 -308 rlineto
          endchar
        </CharString>
        <CharString name="abrevegrave.1">
          -105 callgsubr
          -78 382 -81 callgsubr
          463 102 rmoveto
          -171 308 rlineto
          -288 hlineto
          240 -308 rlineto
          endchar
        </CharString>
        <CharString name="abrevehookabove">
          -102 352 -107 callsubr
          -3 1128 -81 callgsubr
          205 417 rmoveto
          -21 -138 rlineto
          8 23 24 4 31 hhcurveto
          49 34 -27 -31 -41 -31 -25 -62 -31 hvcurveto
          74 -104 rlineto
          120 44 81 84 109 vvcurveto
          111 -109 52 -98 -56 -38 -6 -9 -21 vhcurveto
          endchar
        </CharString>
        <CharString name="abrevehookabove.1">
          -105 callgsubr
          -98 382 -81 callgsubr
          205 417 rmoveto
          -21 -138 rlineto
          8 23 24 4 31 hhcurveto
          49 34 -27 -31 -41 -31 -25 -62 -31 hvcurveto
          74 -104 rlineto
          120 44 81 84 109 vvcurveto
          111 -109 52 -98 -56 -38 -6 -9 -21 vhcurveto
          endchar
        </CharString>
        <CharString name="abrevetilde">
          -102 352 -107 callsubr
          -3 1131 -81 callgsubr
          503 104 rmoveto
          131 103 110 143 10 hvcurveto
          -177 hlineto
          -62 -5 -25 -36 -37 -67 -27 115 -150 hhcurveto
          -125 -99 -104 -139 -10 hvcurveto
          177 hlineto
          49 5 27 30 40 75 15 -106 139 hhcurveto
          endchar
        </CharString>
        <CharString name="abrevetilde.1">
          -105 callgsubr
          -98 382 -81 callgsubr
          503 104 rmoveto
          131 103 110 143 10 hvcurveto
          -177 hlineto
          -62 -5 -25 -36 -37 -67 -27 115 -150 hhcurveto
          -125 -99 -104 -139 -10 hvcurveto
          177 hlineto
          49 5 27 30 40 75 15 -106 139 hhcurveto
          endchar
        </CharString>
        <CharString name="acaron">
          -102 352 -107 callsubr
          724 1229 -74 callgsubr
        </CharString>
        <CharString name="acaron.1">
          -105 callgsubr
          663 485 -74 callgsubr
        </CharString>
        <CharString name="acircumflex">
          -102 352 -107 callsubr
          -119 900 -72 callsubr
          endchar
        </CharString>
        <CharString name="acircumflex.1">
          -105 callgsubr
          -155 156 -72 callsubr
          endchar
        </CharString>
        <CharString name="acircumflexacute">
          -102 352 -107 callsubr
          -132 900 -64 callgsubr
          412 -134 rmoveto
          227 hlineto
          354 321 rlineto
          -280 hlineto
          endchar
        </CharString>
        <CharString name="acircumflexacute.1">
          -20 callgsubr
          412 -134 rmoveto
          227 hlineto
          354 321 rlineto
          -280 hlineto
          endchar
        </CharString>
        <CharString name="acircumflexdotbelow">
          -102 352 -107 callsubr
          -119 900 -72 callsubr
          -323 -1815 -96 callgsubr
        </CharString>
        <CharString name="acircumflexdotbelow.1">
          -105 callgsubr
          -175 156 -72 callsubr
          -339 -1815 -96 callgsubr
        </CharString>
        <CharString name="acircumflexgrave">
          -102 352 -107 callsubr
          -131 900 -64 callgsubr
          724 -135 rmoveto
          -166 322 rlineto
          -287 hlineto
          218 -322 rlineto
          endchar
        </CharString>
        <CharString name="acircumflexgrave.1">
          -20 callgsubr
          724 -135 rmoveto
          -166 322 rlineto
          -287 hlineto
          218 -322 rlineto
          endchar
        </CharString>
        <CharString name="acircumflexhookabove">
          -102 352 -107 callsubr
          -114 900 -54 callgsubr
        </CharString>
        <CharString name="acircumflexhookabove.1">
          -20 callgsubr
          249 266 rmoveto
          -2 -145 rlineto
          5 28 22 1 31 hhcurveto
          72 24 -29 -39 -33 -18 -26 -29 -18 hvcurveto
          71 -125 rlineto
          115 44 60 88 99 vvcurveto
          131 -111 58 -150 -41 -46 -6 -5 -26 vhcurveto
          endchar
        </CharString>
        <CharString name="acircumflextilde">
          -102 352 -107 callsubr
          -110 928 -55 callgsubr
        </CharString>
        <CharString name="acircumflextilde.1">
          -105 callgsubr
          -169 156 -55 callgsubr
        </CharString>
        <CharString name="acute">
          -264 397 1241 -73 callgsubr
        </CharString>
        <CharString name="acutecmb">
          -13 1241 -73 callgsubr
        </CharString>
        <CharString name="acutecmb.short">
          4 1495 -71 callgsubr
        </CharString>
        <CharString name="acutedotaccentcmb">
          129 1225 68 callsubr
        </CharString>
        <CharString name="acutedotaccentcmb.short">
          124 1494 69 callgsubr
        </CharString>
        <CharString name="acyrillic">
          -101 352 -107 callsubr
          endchar
        </CharString>
        <CharString name="acyrillic.1">
          16 784 639 56 callgsubr
          -262 446 90 callsubr
          133 -149 213 136 112 77 107 41 vhcurveto
          19 hlineto
          -31 -169 rlineto
          382 hlineto
          190 1075 96 callsubr
          endchar
        </CharString>
        <CharString name="adblgrave">
          -102 352 -107 callsubr
          217 900 -40 callgsubr
        </CharString>
        <CharString name="adblgrave.1">
          -105 callgsubr
          142 156 -40 callgsubr
        </CharString>
        <CharString name="adieresis">
          -102 352 -107 callsubr
          84 867 -101 callsubr
        </CharString>
        <CharString name="adieresis.1">
          -105 callgsubr
          9 123 -101 callsubr
        </CharString>
        <CharString name="adieresismacron">
          -102 352 -107 callsubr
          664 1243 -46 callsubr
        </CharString>
        <CharString name="adieresismacron.1">
          -105 callgsubr
          589 499 -46 callsubr
        </CharString>
        <CharString name="adotaccent">
          -102 352 -107 callsubr
          160 1060 -71 callsubr
        </CharString>
        <CharString name="adotaccent.1">
          -105 callgsubr
          74 316 -71 callsubr
        </CharString>
        <CharString name="adotbelow">
          -102 352 -107 callsubr
          -138 -586 -96 callgsubr
        </CharString>
        <CharString name="adotbelow.1">
          -105 callgsubr
          -219 -1330 -96 callgsubr
        </CharString>
        <CharString name="adotmacron">
          -102 352 -107 callsubr
          678 1243 27 callgsubr
        </CharString>
        <CharString name="adotmacron.1">
          -105 callgsubr
          603 499 27 callgsubr
        </CharString>
        <CharString name="ae">
          558 1222 -88 callgsubr
          endchar
        </CharString>
        <CharString name="aeacute">
          558 1222 -88 callgsubr
          -538 586 -73 callgsubr
        </CharString>
        <CharString name="aemacron">
          558 1222 -88 callgsubr
          -58 589 -79 callgsubr
        </CharString>
        <CharString name="agrave">
          -102 352 -107 callsubr
          451 900 -33 callgsubr
        </CharString>
        <CharString name="agrave.1">
          10 787 637 -54 callsubr
          -135 -24 55 callsubr
          -80 -50 62 101 24 3 34 3 18 hvcurveto
          12 65 rlineto
          130 22 62 76 91 hhcurveto
          75 54 -58 -95 hvcurveto
          -261 447 rmoveto
          -226 -157 -174 -299 -55 hvcurveto
          -13 -68 rlineto
          -9 -48 -5 -59 -52 vvcurveto
          -250 128 -150 210 142 114 76 108 42 vhcurveto
          18 hlineto
          -30 -169 rlineto
          385 31 callsubr
          -387 hlineto
          -37 -212 rlineto
          -15 hlineto
          128 -19 -117 94 -158 hhcurveto
          386 156 -33 callgsubr
        </CharString>
        <CharString name="ahookabove">
          -102 352 -107 callsubr
          163 1103 -64 callsubr
        </CharString>
        <CharString name="ahookabove.1">
          -105 callgsubr
          46 369 -64 callsubr
        </CharString>
        <CharString name="ainvertedbreve">
          -102 352 -107 callsubr
          627 900 -53 callgsubr
        </CharString>
        <CharString name="ainvertedbreve.1">
          -105 callgsubr
          569 156 -53 callgsubr
        </CharString>
        <CharString name="alphagreek">
          -22 callgsubr
          endchar
        </CharString>
        <CharString name="alphatonosgreek">
          -22 callgsubr
          920 vmoveto
          250 hlineto
          245 96 callgsubr
        </CharString>
        <CharString name="amacron">
          -102 352 -107 callsubr
          630 903 -79 callgsubr
        </CharString>
        <CharString name="amacron.1">
          -105 callgsubr
          555 159 -79 callgsubr
        </CharString>
        <CharString name="ampersand">
          200 1091 717 rmoveto
          -4 -4 -47 -1 -4 vhcurveto
          -8 -71 -26 -73 -43 -66 -175 246 rcurveline
          21 11 20 10 16 9 rrcurveto
          199 107 83 105 148 vvcurveto
          172 -170 116 -251 -258 -178 -131 -190 -87 41 -91 92 -115 vhcurveto
          -28 -11 rlineto
          -238 -95 -117 -131 -169 vvcurveto
          -232 192 -153 296 125 123 29 56 115 vhcurveto
          44 -65 377 3 -172 238 107 109 70 124 17 116 rlinecurve
          1 4 18 128 4 vvcurveto
          -796 -496 rmoveto
          -104 -77 69 94 68 55 63 98 43 hvcurveto
          20 9 203 -304 rlineto
          -28 -58 -67 -14 -70 hhcurveto
          47 821 rmoveto
          67 49 49 68 65 49 -42 -55 -75 -43 -51 -102 -47 vhcurveto
          -4 -2 -6 -2 -4 -2 rrcurveto
          -54 78 -18 41 41 vvcurveto
          endchar
        </CharString>
        <CharString name="anoteleia">
          -640 153 866 81 callgsubr
        </CharString>
        <CharString name="aogonek">
          -105 415 342 rmoveto
          60 49 42 81 vhcurveto
          127 hlineto
          -18 -105 rlineto
          -59 -12 -58 -38 -60 hhcurveto
          -60 -49 38 62 hvcurveto
          489 -712 rmoveto
          33 190 rlineto
          -4 -17 -38 -3 -20 hhcurveto
          -61 -44 29 51 1 hvcurveto
          1 102 142 54 80 26 101 573 rcurveline
          5 28 3 30 16 vvcurveto
          248 -185 120 -269 -327 -144 -177 -167 -19 vhcurveto
          356 hlineto
          49 10 41 31 59 hhcurveto
          63 46 -36 -55 -8 -2 -10 -1 -6 hvcurveto
          -13 -78 rlineto
          -226 hlineto
          -231 -187 -91 -206 -23 hvcurveto
          -1 -14 -1 -15 -15 vvcurveto
          -196 138 -111 178 146 85 74 74 37 vhcurveto
          18 hlineto
          -25 -134 -61 -44 -62 -51 -2 -102 rlinecurve
          -139 -2 126 -56 128 hhcurveto
          63 64 12 11 37 hvcurveto
          endchar
        </CharString>
        <CharString name="aogonek.1">
          10 787 638 rmoveto
          -26 -3 -42 -3 -4 callsubr
          -135 -24 -62 -73 -89 hhcurveto
          -80 -50 62 101 22 3 34 3 20 hvcurveto
          12 102 callgsubr
          74 89 hhcurveto
          78 51 -61 -92 hvcurveto
          218 -1008 rmoveto
          33 190 rlineto
          -4 -17 -37 -3 -20 hhcurveto
          -63 -42 31 49 1 hvcurveto
          1 74 85 64 138 44 175 1000 rcurveline
          -387 hlineto
          -37 -212 rlineto
          -15 hlineto
          131 -19 -120 91 -155 hhcurveto
          -224 -159 -171 -302 -55 hvcurveto
          -13 -68 rlineto
          -9 -47 -5 -58 -54 vvcurveto
          -250 127 -150 211 137 118 72 112 43 vhcurveto
          18 hlineto
          -29 -166 rlineto
          54 hlineto
          -102 -52 -46 -60 -2 -89 rrcurveto
          -120 -2 100 -75 154 hhcurveto
          54 64 10 13 45 hvcurveto
          endchar
        </CharString>
        <CharString name="approxequal">
          37 936 576 -12 callgsubr
        </CharString>
        <CharString name="approxequal.uc">
          37 938 778 -12 callgsubr
        </CharString>
        <CharString name="aring">
          -102 352 -107 callsubr
          331 1014 -81 callsubr
        </CharString>
        <CharString name="aring.1">
          -105 callgsubr
          256 270 -81 callsubr
        </CharString>
        <CharString name="aringacute">
          -102 352 -107 callsubr
          332 1014 -17 callgsubr
        </CharString>
        <CharString name="aringacute.1">
          -105 callgsubr
          257 270 -17 callgsubr
        </CharString>
        <CharString name="aringbelow">
          -102 352 -107 callsubr
          37 -733 -81 callsubr
        </CharString>
        <CharString name="aringbelow.1">
          -105 callgsubr
          37 -1477 -81 callsubr
        </CharString>
        <CharString name="asciicircum">
          -192 1075 794 rmoveto
          -231 570 rlineto
          -307 hlineto
          -436 -570 rlineto
          322 hlineto
          204 274 rlineto
          18 hlineto
          96 -274 rlineto
          endchar
        </CharString>
        <CharString name="asciitilde">
          -97 818 464 rmoveto
          200 110 187 261 1 hvcurveto
          -257 hlineto
          -64 -3 -13 -73 -80 -120 -49 163 -201 hhcurveto
          -213 -97 -180 -268 -1 hvcurveto
          255 hlineto
          61 4 16 82 73 106 80 -169 189 hhcurveto
          endchar
        </CharString>
        <CharString name="asterisk">
          -280 825 639 rmoveto
          155 198 -268 135 295 55 -94 233 -252 -167 101 285 -250 35 19 -301 -196 229 -155 -198 267 -134 -293 -56 94 -234 248 163 -98 -280 250 -36 -17 297 rlineto
          endchar
        </CharString>
        <CharString name="asterisk.uc">
          61 1266 458 rmoveto
          -392 200 450 121 -113 300 -397 -250 149 435 -325 34 -5 -456 -298 323 -212 -261 391 -202 -447 -114 114 -299 397 247 -151 -435 327 -34 7 448 293 -319 rlineto
          endchar
        </CharString>
        <CharString name="at">
          547 1052 293 -43 callgsubr
        </CharString>
        <CharString name="at.uc">
          547 1140 354 -43 callgsubr
        </CharString>
        <CharString name="atilde">
          -102 352 -107 callsubr
          429 865 -95 callsubr
          endchar
        </CharString>
        <CharString name="atilde.1">
          -105 callgsubr
          352 107 -95 callsubr
          endchar
        </CharString>
        <CharString name="austral">
          37 519 466 rmoveto
          -3 hlineto
          53 146 rlineto
          3 hlineto
          175 hlineto
          1 -146 rlineto
          -25 565 rmoveto
          21 hlineto
          2 -266 rlineto
          -121 hlineto
          676 -168 rmoveto
          29 168 rlineto
          -226 hlineto
          -57 599 rlineto
          -497 hlineto
          -265 -599 rlineto
          -219 hlineto
          -29 -168 rlineto
          174 hlineto
          -55 -125 rlineto
          -141 hlineto
          -30 -168 rlineto
          96 hlineto
          -134 -304 rlineto
          398 hlineto
          111 304 rlineto
          293 hlineto
          2 -304 rlineto
          426 hlineto
          -29 304 rlineto
          101 hlineto
          30 168 rlineto
          -145 hlineto
          -2 hlineto
          -12 125 rlineto
          endchar
        </CharString>
        <CharString name="b">
          -67 callgsubr
          endchar
        </CharString>
        <CharString name="backslash">
          -418 700 -315 101 callgsubr
        </CharString>
        <CharString name="backslash.uc">
          -418 722 -191 101 callgsubr
        </CharString>
        <CharString name="baht">
          37 862 1139 rmoveto
          51 -15 37 -35 -69 vvcurveto
          -99 -55 -59 -85 -18 vhcurveto
          -48 -274 rmoveto
          81 -12 56 -41 -92 vvcurveto
          -120 -81 -69 -117 -11 vhcurveto
          -275 -1 rmoveto
          61 349 rlineto
          100 hlineto
          -61 -349 rlineto
          60 924 rmoveto
          103 hlineto
          -55 -309 rlineto
          -101 hlineto
          445 -120 rmoveto
          133 12 184 123 203 vvcurveto
          184 -129 123 -259 vhcurveto
          -5 hlineto
          26 147 rlineto
          -175 hlineto
          -26 -147 rlineto
          -443 hlineto
          -241 -1364 rlineto
          443 hlineto
          -23 -131 rlineto
          175 hlineto
          23 131 rlineto
          15 hlineto
          312 260 126 286 170 -145 111 -128 8 hvcurveto
          endchar
        </CharString>
        <CharString name="bar">
          -418 449 -317 100 callsubr
        </CharString>
        <CharString name="bar.uc">
          -418 471 -193 100 callsubr
        </CharString>
        <CharString name="bdotaccent">
          -67 callgsubr
          -141 1274 -77 callsubr
        </CharString>
        <CharString name="bdotbelow">
          -67 callgsubr
          -148 -691 -96 callgsubr
        </CharString>
        <CharString name="becyrillic">
          -15 484 523 rmoveto
          118 22 47 86 106 hhcurveto
          91 37 -71 -85 -13 0 -18 -1 -15 hvcurveto
          -1 -12 -4 -24 -2 -12 rrcurveto
          -113 -19 -49 -97 -103 hhcurveto
          -95 -40 71 90 18 2 16 1 16 hvcurveto
          1 11 4 22 3 12 rrcurveto
          297 467 rmoveto
          -170 -97 -83 -110 -61 hvcurveto
          -19 hlineto
          48 196 81 112 250 16 146 9 rcurveline
          205 13 87 134 29 160 rrcurveto
          -283 hlineto
          -4 -16 -25 -20 -60 -4 -120 -7 rcurveline
          -427 -26 -174 -224 -73 -427 -13 -73 rcurveline
          -11 -62 -4 -54 -52 vvcurveto
          -309 4 197 -178 320 hhcurveto
          316 206 194 254 43 hvcurveto
          3 18 4 30 2 19 rrcurveto
          2 22 1 24 24 vvcurveto
          252 -156 168 -247 vhcurveto
          endchar
        </CharString>
        <CharString name="betagreek">
          23 -34 -357 rmoveto
          382 hlineto
          95 538 rlineto
          14 hlineto
          -127 38 107 -69 172 hhcurveto
          266 162 193 263 160 -91 115 -139 38 hvcurveto
          4 19 rlineto
          138 54 91 124 172 vvcurveto
          225 -189 122 -268 -346 -143 -161 -367 -65 vhcurveto
          446 -661 rmoveto
          -89 -58 49 100 33 2 23 16 87 hvcurveto
          79 439 rlineto
          126 22 43 55 86 hhcurveto
          79 44 -44 -77 -122 -58 -57 -107 hvcurveto
          -52 hlineto
          -47 -264 rlineto
          41 hlineto
          114 64 -53 -99 -118 -64 -78 -115 hvcurveto
          endchar
        </CharString>
        <CharString name="bitcoin">
          37 531 827 rmoveto
          48 271 rlineto
          159 hlineto
          89 46 -40 -70 -100 -66 -61 -114 hvcurveto
          -259 -557 rmoveto
          54 310 rlineto
          173 hlineto
          109 55 -43 -86 -112 -78 -69 -133 hvcurveto
          338 447 rmoveto
          160 14 138 149 156 vvcurveto
          164 -109 103 -194 17 vhcurveto
          37 203 rlineto
          -160 hlineto
          -37 -201 rlineto
          -138 hlineto
          36 201 rlineto
          -159 hlineto
          -37 -201 rlineto
          -206 hlineto
          -227 -1279 rlineto
          208 hlineto
          -37 -200 rlineto
          160 hlineto
          37 200 rlineto
          138 hlineto
          -37 -200 rlineto
          159 hlineto
          37 201 rlineto
          302 15 184 147 225 vvcurveto
          138 -118 123 -140 10 vhcurveto
          endchar
        </CharString>
        <CharString name="blinebelow">
          -67 callgsubr
          323 -808 -79 callgsubr
        </CharString>
        <CharString name="braceleft">
          -418 360 579 -1 callgsubr
        </CharString>
        <CharString name="braceleft.uc">
          -418 381 702 -1 callgsubr
        </CharString>
        <CharString name="braceright">
          -418 510 545 0 callgsubr
        </CharString>
        <CharString name="braceright.uc">
          -418 532 668 0 callgsubr
        </CharString>
        <CharString name="bracketleft">
          -418 296 1437 73 callgsubr
        </CharString>
        <CharString name="bracketleft.uc">
          -418 318 1560 73 callgsubr
        </CharString>
        <CharString name="bracketright">
          -418 218 1437 72 callsubr
        </CharString>
        <CharString name="bracketright.uc">
          -418 240 1560 72 callsubr
        </CharString>
        <CharString name="breve">
          -264 378 1554 -77 callgsubr
          endchar
        </CharString>
        <CharString name="breveacutecmb">
          -166 1467 -81 callgsubr
          219 102 rmoveto
          224 hlineto
          320 308 92 callgsubr
          endchar
        </CharString>
        <CharString name="breveacutecmb.short">
          -105 1736 -5 callsubr
          13 18 rmoveto
          218 hlineto
          234 191 rlineto
          -278 hlineto
          endchar
        </CharString>
        <CharString name="brevebelowcmb">
          -456 -112 14 callgsubr
        </CharString>
        <CharString name="brevecmb">
          -147 1559 -77 callgsubr
          endchar
        </CharString>
        <CharString name="brevecmb.short">
          -123 1789 -69 callgsubr
          endchar
        </CharString>
        <CharString name="brevecyrillic">
          -259 341 1569 -86 callgsubr
        </CharString>
        <CharString name="brevecyrillic.short">
          -126 1779 -80 callgsubr
          endchar
        </CharString>
        <CharString name="brevegravecmb">
          -166 1467 -81 callgsubr
          463 102 rmoveto
          -171 308 rlineto
          -288 hlineto
          240 -308 rlineto
          endchar
        </CharString>
        <CharString name="brevegravecmb.short">
          -105 1736 -5 callsubr
          261 18 rmoveto
          -165 191 rlineto
          -277 hlineto
          216 -191 rlineto
          endchar
        </CharString>
        <CharString name="brevehookabovecmb">
          -166 1467 -81 callgsubr
          205 417 rmoveto
          -21 -138 rlineto
          8 23 24 4 31 hhcurveto
          49 34 -27 -31 -41 -31 -25 -62 -31 hvcurveto
          74 -104 rlineto
          120 44 81 84 109 vvcurveto
          111 -109 52 -98 -56 -38 -6 -9 -21 vhcurveto
          endchar
        </CharString>
        <CharString name="brevehookabovecmb.short">
          -88 1689 16 callgsubr
        </CharString>
        <CharString name="brevetildecmb">
          -166 1467 -81 callgsubr
          503 104 rmoveto
          131 103 110 143 10 hvcurveto
          -177 hlineto
          -62 -5 -25 -36 -37 -67 -27 115 -150 hhcurveto
          -125 -99 -104 -139 -10 hvcurveto
          177 hlineto
          49 5 27 30 40 75 15 -106 139 hhcurveto
          endchar
        </CharString>
        <CharString name="brevetildecmb.short">
          -86 1687 11 callsubr
        </CharString>
        <CharString name="brokenbar">
          -418 641 773 rmoveto
          118 664 rlineto
          -339 hlineto
          -118 -664 rlineto
          147 -1090 rmoveto
          118 669 rlineto
          -339 hlineto
          -118 -669 rlineto
          endchar
        </CharString>
        <CharString name="bullet">
          -280 502 152 68 callgsubr
        </CharString>
        <CharString name="bullet.uc">
          -280 525 285 68 callgsubr
        </CharString>
        <CharString name="c">
          -118 68 417 -86 callsubr
          endchar
        </CharString>
        <CharString name="cacute">
          -118 68 417 -86 callsubr
          500 824 -73 callgsubr
        </CharString>
        <CharString name="caron">
          -264 1078 1564 -74 callgsubr
        </CharString>
        <CharString name="caroncmb">
          575 1570 -74 callgsubr
        </CharString>
        <CharString name="caroncmb.short">
          610 1736 -82 callgsubr
          endchar
        </CharString>
        <CharString name="carondotaccentcmb">
          -204 1563 48 callgsubr
        </CharString>
        <CharString name="carondotaccentcmb.short">
          601 1692 50 callgsubr
        </CharString>
        <CharString name="ccaron">
          -118 68 417 -86 callsubr
          1088 1153 -74 callgsubr
        </CharString>
        <CharString name="ccedilla">
          -118 443 -63 callsubr
          endchar
        </CharString>
        <CharString name="ccedillaacute">
          -118 443 -63 callsubr
          125 1719 -73 callgsubr
        </CharString>
        <CharString name="ccircumflex">
          -118 68 417 -86 callsubr
          250 824 -72 callsubr
          endchar
        </CharString>
        <CharString name="cdotaccent">
          -118 68 417 -86 callsubr
          516 984 -71 callsubr
        </CharString>
        <CharString name="cedi">
          37 499 781 rmoveto
          32 185 71 106 105 28 -141 -803 rcurveline
          -64 40 -37 77 106 vvcurveto
          34 4 53 7 46 vhcurveto
          830 168 rmoveto
          7 23 9 53 30 vvcurveto
          213 -158 165 -235 53 vhcurveto
          27 153 rlineto
          -176 hlineto
          -24 -135 -345 -3 -229 -199 -60 -352 rlinecurve
          -28 -161 rlineto
          -5 -29 -4 -54 -28 vvcurveto
          -311 152 -193 276 -47 vhcurveto
          -23 -130 rlineto
          176 hlineto
          21 120 317 12 216 177 27 279 rlinecurve
          1 2 23 1 vvcurveto
          -337 hlineto
          -17 -116 -63 -74 -95 -20 142 803 rcurveline
          52 -35 31 -61 1 -76 rrcurveto
          -25 -3 -36 -4 -21 vhcurveto
          endchar
        </CharString>
        <CharString name="cedilla">
          -264 282 -165 -30 callsubr
        </CharString>
        <CharString name="cedillacmb">
          -223 -165 -30 callsubr
        </CharString>
        <CharString name="cent">
          37 163 557 rmoveto
          -201 115 -149 171 -53 vhcurveto
          -40 -229 rlineto
          306 hlineto
          38 215 rlineto
          1 hlineto
          197 17 186 132 27 225 rrcurveto
          -353 hlineto
          -60 -10 -46 -41 -79 hhcurveto
          -101 -38 70 94 18 2 33 5 35 hvcurveto
          16 101 rlineto
          127 22 65 58 79 hhcurveto
          85 41 -64 -72 -3 0 -9 -1 -6 hvcurveto
          353 hlineto
          4 13 2 13 24 vvcurveto
          174 -114 133 -155 49 vhcurveto
          43 232 rlineto
          -308 hlineto
          -37 -207 rlineto
          0 vlineto
          -207 -27 -193 -133 -47 -272 -17 -100 rcurveline
          -8 -45 -4 -52 -40 vvcurveto
          endchar
        </CharString>
        <CharString name="checyrillic">
          -14 1036 hmoveto
          -37 callgsubr
          endchar
        </CharString>
        <CharString name="chigreek">
          5 570 69 rmoveto
          83 -243 rlineto
          -132 45 76 -57 163 hhcurveto
          50 53 7 8 28 hvcurveto
          48 262 rlineto
          -4 -14 -13 -2 -24 hhcurveto
          -48 -31 25 96 -36 hvcurveto
          -123 328 543 718 rlineto
          -382 hlineto
          -283 -402 rlineto
          -17 hlineto
          -73 217 rlineto
          140 -46 -66 53 -156 hhcurveto
          -64 -67 -13 -6 -24 hvcurveto
          -48 -263 rlineto
          4 12 26 6 19 hhcurveto
          49 26 -15 -57 21 hvcurveto
          134 -354 -560 -742 rlineto
          381 hlineto
          305 426 rlineto
          endchar
        </CharString>
        <CharString name="circumflex">
          -264 238 1241 -72 callsubr
          endchar
        </CharString>
        <CharString name="circumflexacutecmb">
          73 callsubr
          412 -134 rmoveto
          227 hlineto
          354 321 rlineto
          -280 hlineto
          endchar
        </CharString>
        <CharString name="circumflexacutecmb.short">
          36 callgsubr
          404 -82 rmoveto
          226 hlineto
          296 253 rlineto
          -268 hlineto
          endchar
        </CharString>
        <CharString name="circumflexbelowcmb">
          -557 -424 -58 callgsubr
          endchar
        </CharString>
        <CharString name="circumflexcmb">
          -263 1241 -72 callsubr
          endchar
        </CharString>
        <CharString name="circumflexcmb.short">
          -217 78 callsubr
          endchar
        </CharString>
        <CharString name="circumflexgravecmb">
          73 callsubr
          724 -135 rmoveto
          -166 322 rlineto
          -287 hlineto
          218 -322 rlineto
          endchar
        </CharString>
        <CharString name="circumflexgravecmb.short">
          36 callgsubr
          700 -82 rmoveto
          -178 253 rlineto
          -241 hlineto
          193 -253 rlineto
          endchar
        </CharString>
        <CharString name="circumflexhookabovecmb">
          -277 1241 -54 callgsubr
        </CharString>
        <CharString name="circumflexhookabovecmb.short">
          36 callgsubr
          313 83 rmoveto
          3 14 12 2 28 hhcurveto
          48 32 -26 -39 -25 -13 -18 -27 -17 hvcurveto
          82 -87 rlineto
          55 30 62 58 80 vvcurveto
          119 -90 37 -110 -40 -38 -6 -5 -13 vhcurveto
          endchar
        </CharString>
        <CharString name="circumflextildecmb">
          -257 1241 -55 callgsubr
        </CharString>
        <CharString name="circumflextildecmb.short">
          -175 1494 -36 callsubr
        </CharString>
        <CharString name="colon">
          -630 152 817 120 callgsubr
          130 -97 80 -124 -123 -97 -78 -132 vhcurveto
          -108 -632 rmoveto
          11 callgsubr
          endchar
        </CharString>
        <CharString name="colon.uc">
          -630 183 988 rmoveto
          11 callgsubr
          -108 -633 87 callgsubr
          130 87 callsubr
          -133 vhcurveto
          endchar
        </CharString>
        <CharString name="coloncurrency">
          37 963 1084 rmoveto
          51 -1 46 -4 39 -6 -325 -772 rcurveline
          -46 12 -39 17 -34 22 rrcurveto
          -108 419 rmoveto
          24 140 85 100 125 46 -238 -567 rcurveline
          -13 33 -6 37 41 vvcurveto
          23 3 26 4 24 vhcurveto
          913 813 rmoveto
          -171 hlineto
          -54 -130 -36 9 -45 8 -50 6 rlinecurve
          45 107 rlineto
          -171 hlineto
          -42 -99 -386 -7 -289 -219 -72 -349 rlinecurve
          -21 -103 rlineto
          -9 -40 -4 -44 -47 vvcurveto
          -197 91 -161 155 -106 vhcurveto
          -105 -249 rlineto
          170 hlineto
          74 176 39 -16 42 -13 44 -10 rlinecurve
          -58 -137 rlineto
          170 hlineto
          48 113 rlineto
          -2 28 29 -1 30 hhcurveto
          57 52 3 2 38 hvcurveto
          53 302 rlineto
          -3 -31 -45 -2 -56 hhcurveto
          -10 -10 0 -9 hhcurveto
          endchar
        </CharString>
        <CharString name="comma">
          -670 216 -365 rmoveto
          281 639 rlineto
          -360 hlineto
          -219 -639 rlineto
          endchar
        </CharString>
        <CharString name="commaaccent">
          -264 444 -468 -32 callgsubr
        </CharString>
        <CharString name="commabelowcmb">
          -70 -467 -32 callgsubr
        </CharString>
        <CharString name="copyright">
          433 861 -69 rmoveto
          368 294 230 361 61 hvcurveto
          17 103 rlineto
          8 43 3 40 38 vvcurveto
          379 -286 312 -424 -365 -296 -233 -335 -56 vhcurveto
          -18 -103 rlineto
          -8 -48 -4 -49 -44 vvcurveto
          -392 283 -302 423 vhcurveto
          -564 693 rmoveto
          39 4 38 6 39 vhcurveto
          18 103 rlineto
          262 43 229 195 300 hhcurveto
          342 231 -253 -301 -33 -3 -32 -5 -32 hvcurveto
          -18 -104 rlineto
          -288 -48 -234 -188 -299 hhcurveto
          -337 -229 240 315 hvcurveto
          229 -5 rmoveto
          -207 120 -121 210 199 115 108 171 27 vhcurveto
          -222 hlineto
          -57 -11 -36 -37 -60 hhcurveto
          -77 -33 59 68 17 2 29 3 20 hvcurveto
          11 60 rlineto
          114 20 49 50 64 hhcurveto
          62 38 -49 -56 -9 -1 -18 -2 -11 hvcurveto
          223 hlineto
          8 20 1 31 15 vvcurveto
          128 -120 128 -213 -201 -125 -115 -188 -32 vhcurveto
          -14 -86 rlineto
          -4 -27 -1 -17 -20 vvcurveto
          endchar
        </CharString>
        <CharString name="cruzeiro">
          37 563 771 rmoveto
          195 33 152 118 211 hhcurveto
          130 95 -21 -20 53 hvcurveto
          54 297 rlineto
          23 -56 -132 25 -148 hhcurveto
          -396 -298 -220 -355 -73 hvcurveto
          -20 -103 rlineto
          -10 -40 -4 -44 -47 vvcurveto
          -363 307 -240 451 56 52 3 2 38 vhcurveto
          53 302 rlineto
          -3 -31 -45 -2 -56 hhcurveto
          -41 -38 3 4 -35 hvcurveto
          27 156 rlineto
          131 23 61 64 101 hhcurveto
          32 30 -4 -7 24 hvcurveto
          43 237 rlineto
          8 -21 -15 2 -33 hhcurveto
          -88 -69 -56 -97 -31 hvcurveto
          -15 hlineto
          25 141 rlineto
          -232 hlineto
          -86 -486 rlineto
          -66 54 -35 77 96 vvcurveto
          23 2 26 4 24 vhcurveto
          endchar
        </CharString>
        <CharString name="currency">
          37 487 645 rmoveto
          105 84 84 105 104 84 -84 -105 -105 -84 -86 -104 -105 -84 86 105 vhcurveto
          558 -568 rmoveto
          183 180 -143 149 rlineto
          42 70 24 81 87 vvcurveto
          82 -21 78 -37 68 vhcurveto
          154 147 -180 183 -153 -147 rlineto
          42 -70 -81 24 -85 hhcurveto
          -84 -78 -21 -38 -68 hvcurveto
          -144 151 -183 -181 145 -150 rlineto
          -42 -70 -23 -80 -86 vvcurveto
          -83 21 -78 38 -68 vhcurveto
          -153 -147 180 -183 153 147 rlineto
          -42 69 80 -23 87 hhcurveto
          81 78 20 38 66 hvcurveto
          endchar
        </CharString>
        <CharString name="d">
          10 526 1085 -97 callsubr
          endchar
        </CharString>
        <CharString name="dagger">
          -280 929 788 rmoveto
          55 311 -220 -7 57 273 rlineto
          -352 hlineto
          -39 -273 -216 7 -55 -311 219 8 -96 -492 rlineto
          352 hlineto
          78 492 rlineto
          endchar
        </CharString>
        <CharString name="daggerdbl">
          -280 861 392 rmoveto
          50 284 -222 -7 30 125 16 133 219 -6 49 283 -222 -7 39 168 rlineto
          -351 hlineto
          -22 -168 -216 7 -49 -283 218 6 -31 -127 -15 -131 -216 7 -50 -284 219 7 -38 -168 rlineto
          351 hlineto
          21 168 rlineto
          endchar
        </CharString>
        <CharString name="dblgrave">
          -264 692 1241 -40 callgsubr
        </CharString>
        <CharString name="dblgravecmb">
          54 1241 -40 callgsubr
        </CharString>
        <CharString name="dblgravecmb.short">
          97 1495 -34 callsubr
          endchar
        </CharString>
        <CharString name="dcaron">
          340 1469 108 callsubr
          -1245 -352 -97 callsubr
          endchar
        </CharString>
        <CharString name="dcircumflexbelow">
          9 526 1085 -97 callsubr
          -693 -1062 -58 callgsubr
          endchar
        </CharString>
        <CharString name="dcommaaccent">
          9 526 1085 -97 callsubr
          -206 -1105 -32 callgsubr
        </CharString>
        <CharString name="dcroat">
          27 787 638 -54 callsubr
          -134 -24 -61 -74 -90 hhcurveto
          -80 -50 62 101 21 3 32 3 23 hvcurveto
          12 65 rlineto
          130 22 62 76 91 hhcurveto
          75 54 -58 -95 hvcurveto
          -90 -469 rmoveto
          18 hlineto
          -30 -169 51 callsubr
          198 1125 rlineto
          111 hlineto
          31 188 rlineto
          -128 hlineto
          23 124 rlineto
          -345 hlineto
          -23 -124 rlineto
          -206 hlineto
          -31 -188 rlineto
          184 hlineto
          -46 -262 rlineto
          -14 hlineto
          127 -19 -120 95 -159 hhcurveto
          -226 -157 -174 -299 -55 hvcurveto
          -13 -68 rlineto
          -9 -46 -5 -59 -54 vvcurveto
          -250 129 -145 210 143 112 71 108 42 vhcurveto
          endchar
        </CharString>
        <CharString name="ddotaccent">
          9 526 1085 -97 callsubr
          235 1082 -77 callsubr
        </CharString>
        <CharString name="ddotbelow">
          9 526 1085 -97 callsubr
          -426 -883 -96 callgsubr
        </CharString>
        <CharString name="decyrillic">
          80 17 callsubr
        </CharString>
        <CharString name="decyrillic.1">
          -62 1127 483 rmoveto
          22 121 rlineto
          403 69 -96 445 -551 hhcurveto
          -88 -90 -13 -20 -65 hvcurveto
          -58 -303 rlineto
          31 87 69 11 88 hhcurveto
          200 81 -116 -124 2 hvcurveto
          -9 hlineto
          42 -46 -82 39 -131 hhcurveto
          -224 -147 -136 -219 -61 hvcurveto
          -8 -29 -9 -47 -8 -35 rrcurveto
          -6 -32 -4 -32 -30 vvcurveto
          -266 180 -188 320 356 154 192 306 55 vhcurveto
          -494 283 rmoveto
          91 41 -69 -88 -27 -3 -37 -4 -23 hvcurveto
          -10 -51 rlineto
          -116 -21 -48 -94 -102 hhcurveto
          -93 -40 77 86 22 2 36 5 25 hvcurveto
          9 49 rlineto
          114 21 46 96 106 hhcurveto
          endchar
        </CharString>
        <CharString name="degree">
          -566 452 775 rmoveto
          180 133 128 176 175 -132 128 -181 -181 -132 -128 -175 -176 133 -128 180 hvcurveto
          1 188 rmoveto
          -62 -50 52 64 64 50 51 62 61 49 -50 -65 -65 -49 -51 -61 hvcurveto
          endchar
        </CharString>
        <CharString name="deltagreek">
          -102 543 -21 rmoveto
          272 206 159 254 57 hvcurveto
          10 45 5 47 48 vvcurveto
          189 -49 105 -230 194 vhcurveto
          -71 59 -12 18 32 vvcurveto
          32 24 25 51 71 113 -35 -47 80 vhcurveto
          87 239 rlineto
          68 -89 -176 56 -172 hhcurveto
          -237 -139 -117 -171 -79 42 -76 89 -61 hvcurveto
          -3 -18 rlineto
          0 vlineto
          -221 -31 -145 -166 -40 -199 rrcurveto
          -7 -37 -4 -36 -36 vvcurveto
          -311 212 -150 276 vhcurveto
          3 259 rmoveto
          -74 -44 50 97 27 5 53 10 54 hvcurveto
          153 28 56 61 84 hhcurveto
          77 43 -48 -104 -23 -8 -67 -5 -31 hvcurveto
          -167 -30 -58 -55 -84 hhcurveto
          endchar
        </CharString>
        <CharString name="dieresis">
          -264 432 1241 -101 callsubr
        </CharString>
        <CharString name="dieresisacutecmb">
          -235 1334 4 callgsubr
        </CharString>
        <CharString name="dieresisacutecmb.short">
          67 1 callgsubr
          endchar
        </CharString>
        <CharString name="dieresisbelowcmb">
          -357 -403 -101 callsubr
        </CharString>
        <CharString name="dieresiscaroncmb">
          49 24 callgsubr
        </CharString>
        <CharString name="dieresiscaroncmb.short">
          625 1945 26 callsubr
        </CharString>
        <CharString name="dieresiscmb">
          -79 1208 -101 callsubr
        </CharString>
        <CharString name="dieresiscmb.short">
          -146 19 callgsubr
          endchar
        </CharString>
        <CharString name="dieresisgravecmb">
          -242 34 callsubr
        </CharString>
        <CharString name="dieresisgravecmb.short">
          -100 1945 rmoveto
          228 -190 rlineto
          229 hlineto
          -176 190 rlineto
          -327 18 callsubr
        </CharString>
        <CharString name="dieresismacroncmb">
          501 1584 -46 callsubr
        </CharString>
        <CharString name="dieresismacroncmb.short">
          574 1931 -24 callsubr
        </CharString>
        <CharString name="dieresistonosgreek">
          35 274 1341 -36 callgsubr
        </CharString>
        <CharString name="divide">
          37 503 1019 25 callgsubr
        </CharString>
        <CharString name="divide.uc">
          37 525 1159 25 callgsubr
        </CharString>
        <CharString name="djecyrillic">
          41 722 22 rmoveto
          -76 -13 -48 -37 -77 hhcurveto
          -29 -23 3 4 -11 102 callsubr
          28 68 -6 40 hhcurveto
          292 158 123 258 46 hvcurveto
          98 557 rlineto
          16 91 8 66 -41 callsubr
          39 224 rlineto
          142 hlineto
          31 189 rlineto
          -139 hlineto
          19 106 64 callgsubr
          -19 -106 rlineto
          -85 hlineto
          -31 -189 rlineto
          83 hlineto
          -200 -1142 rlineto
          2 callgsubr
          129 23 59 73 92 hhcurveto
          78 42 -50 -80 -30 -4 -41 -4 -22 hvcurveto
          endchar
        </CharString>
        <CharString name="dlinebelow">
          9 526 1085 -97 callsubr
          45 -1000 -79 callgsubr
        </CharString>
        <CharString name="dollar">
          37 425 -127 rmoveto
          128 hlineto
          29 111 rlineto
          -1 16 15 0 16 hhcurveto
          314 255 151 286 2 hvcurveto
          2 227 -162 90 -162 54 rrcurveto
          -1 -80 26 0 hvcurveto
          77 304 55 -23 40 -49 1 -65 rlinecurve
          -8 0 -6 -1 -3 vhcurveto
          287 hlineto
          1 6 2 17 13 vvcurveto
          169 -125 138 -198 51 vhcurveto
          39 150 rlineto
          -128 hlineto
          -34 -131 rlineto
          1 -17 -19 1 -18 hhcurveto
          -296 -245 -150 -274 -219 157 -108 169 -56 hvcurveto
          -1 2 53 -18 2 hhcurveto
          -80 -315 rlineto
          -74 26 -48 59 67 vvcurveto
          8 1 6 1 5 vhcurveto
          -298 hlineto
          -2 -13 -1 -13 -16 vvcurveto
          -199 156 -125 202 -45 vhcurveto
          410 373 rmoveto
          -106 -111 -50 -113 vhcurveto
          -1 hlineto
          76 303 rlineto
          0 1 -1 0 vhcurveto
          86 -28 62 -39 -79 vvcurveto
          -315 620 rmoveto
          95 91 57 107 vhcurveto
          1 hlineto
          -74 -291 rlineto
          -1 0 1 -1 hhcurveto
          -81 25 -42 48 65 vvcurveto
          endchar
        </CharString>
        <CharString name="dotaccent">
          -264 460 1492 rmoveto
          -130 97 -74 120 120 97 74 130 128 -96 78 -121 -121 -96 -75 -131 vhcurveto
          endchar
        </CharString>
        <CharString name="dotaccentcmb">
          3 1401 -71 callsubr
        </CharString>
        <CharString name="dotaccentcmb.short">
          46 1647 -77 callsubr
        </CharString>
        <CharString name="dotbelowcmb">
          -290 45 callgsubr
          endchar
        </CharString>
        <CharString name="dotlessi">
          -636 34 -32 callsubr
          endchar
        </CharString>
        <CharString name="dotlessj">
          -550 653 1075 rmoveto
          59 callgsubr
          endchar
        </CharString>
        <CharString name="dotmacroncmb">
          515 1584 27 callgsubr
        </CharString>
        <CharString name="dotmacroncmb.short">
          32 1561 30 callgsubr
        </CharString>
        <CharString name="dzecyrillic">
          -129 151 -99 callgsubr
          endchar
        </CharString>
        <CharString name="dzhecyrillic">
          31 395 hmoveto
          -50 -285 rlineto
          330 hlineto
          50 285 rlineto
          356 61 callsubr
          -141 -800 rlineto
          -273 112 callgsubr
          -189 -1075 rlineto
          endchar
        </CharString>
        <CharString name="e">
          -83 566 -21 3 callsubr
        </CharString>
        <CharString name="eacute">
          -83 566 -21 -106 callsubr
          -184 586 -73 callgsubr
        </CharString>
        <CharString name="ebreve">
          -83 566 -21 -106 callsubr
          -318 904 -77 callgsubr
          endchar
        </CharString>
        <CharString name="ecaron">
          -83 566 -21 -106 callsubr
          404 915 -74 callgsubr
        </CharString>
        <CharString name="ecedilla">
          -28 callgsubr
          endchar
        </CharString>
        <CharString name="ecedillabreve">
          -28 callgsubr
          4 2037 -77 callgsubr
          endchar
        </CharString>
        <CharString name="ecircumflex">
          -83 566 -21 -106 callsubr
          -434 586 -72 callsubr
          endchar
        </CharString>
        <CharString name="ecircumflexacute">
          -18 callsubr
          412 -134 rmoveto
          227 hlineto
          354 321 rlineto
          -280 hlineto
          endchar
        </CharString>
        <CharString name="ecircumflexbelow">
          -83 566 -21 -106 callsubr
          -721 -1079 -58 callgsubr
          endchar
        </CharString>
        <CharString name="ecircumflexdotbelow">
          -83 566 -21 -106 callsubr
          -434 586 -72 callsubr
          -332 -1815 -96 callgsubr
        </CharString>
        <CharString name="ecircumflexgrave">
          -18 callsubr
          724 -135 rmoveto
          -166 322 rlineto
          -287 hlineto
          218 -322 rlineto
          endchar
        </CharString>
        <CharString name="ecircumflexhookabove">
          -18 callsubr
          249 266 rmoveto
          -2 -145 rlineto
          5 28 22 1 31 hhcurveto
          72 24 -29 -39 -33 -18 -26 -29 -18 hvcurveto
          71 -125 rlineto
          115 44 60 88 99 vvcurveto
          131 -111 58 -150 -41 -46 -6 -5 -26 vhcurveto
          endchar
        </CharString>
        <CharString name="ecircumflextilde">
          -83 566 -21 -106 callsubr
          -428 586 -55 callgsubr
        </CharString>
        <CharString name="ecyrillic">
          -122 -2 callsubr
          endchar
        </CharString>
        <CharString name="edblgrave">
          -83 566 -21 -106 callsubr
          -117 586 -40 callgsubr
        </CharString>
        <CharString name="edieresis">
          -83 566 -21 -106 callsubr
          -250 553 -101 callsubr
        </CharString>
        <CharString name="edotaccent">
          -83 566 -21 -106 callsubr
          -168 746 -71 callsubr
        </CharString>
        <CharString name="edotbelow">
          -83 566 -21 -106 callsubr
          -454 -900 -96 callgsubr
        </CharString>
        <CharString name="efcyrillic">
          332 475 -357 rmoveto
          346 hlineto
          59 333 rlineto
          6 2 12 -6 8 hhcurveto
          360 5 200 150 60 321 9 48 rcurveline
          7 40 4 40 37 vvcurveto
          266 -187 178 -280 30 vhcurveto
          43 248 rlineto
          -346 hlineto
          -41 -243 rlineto
          -2 -5 0 -1 hhcurveto
          -360 -215 -151 -325 -60 hvcurveto
          -9 -48 rlineto
          -7 -41 -4 -39 -37 vvcurveto
          -266 187 -178 280 -30 vhcurveto
          56 265 rmoveto
          -117 21 -38 71 95 vvcurveto
          38 5 42 8 43 vhcurveto
          5 24 28 152 64 72 116 16 rlinecurve
          10 1 10 1 11 1 rrcurveto
          324 -1 rmoveto
          117 -22 37 -71 2 -94 rrcurveto
          -38 -6 -42 -7 -43 vhcurveto
          -5 -24 -28 -155 -66 -71 -120 -16 rlinecurve
          -8 -1 -8 0 -9 -1 rrcurveto
          endchar
        </CharString>
        <CharString name="egrave">
          -83 566 -21 -106 callsubr
          117 586 -33 callgsubr
        </CharString>
        <CharString name="ehookabove">
          -83 566 -21 -106 callsubr
          -164 789 -64 callsubr
        </CharString>
        <CharString name="eight">
          95 990 -9 callsubr
        </CharString>
        <CharString name="eight.dnum">
          -310 669 444 -62 callgsubr
        </CharString>
        <CharString name="eight.numr">
          -311 752 915 -62 callgsubr
        </CharString>
        <CharString name="eight.subs">
          -310 599 49 -62 callgsubr
        </CharString>
        <CharString name="eight.sups">
          -315 822 1311 -62 callgsubr
        </CharString>
        <CharString name="eight.tnum">
          37 963 -9 callsubr
        </CharString>
        <CharString name="einvertedbreve">
          -83 566 -21 -106 callsubr
          310 586 -53 callgsubr
        </CharString>
        <CharString name="elcyrillic">
          -2 263 690 -38 callgsubr
        </CharString>
        <CharString name="ellipsis">
          683 1343 185 rmoveto
          11 callgsubr
          -644 hmoveto
          11 callgsubr
          -644 hmoveto
          11 callgsubr
          endchar
        </CharString>
        <CharString name="emacron">
          -83 566 -21 -106 callsubr
          296 589 -79 callgsubr
        </CharString>
        <CharString name="emacronacute">
          -83 566 -21 -106 callsubr
          -148 872 42 callgsubr
        </CharString>
        <CharString name="emacrongrave">
          -83 566 -21 -106 callsubr
          -119 872 43 callsubr
        </CharString>
        <CharString name="emcyrillic">
          315 488 35 callgsubr
        </CharString>
</ttFont>
